<svg xmlns="http://www.w3.org/2000/svg" xmlns:xlink="http://www.w3.org/1999/xlink" width="600" zoomAndPan="magnify" viewBox="0 0 450 449.999984" height="600" preserveAspectRatio="xMidYMid meet" version="1.0"><defs><filter x="0%" y="0%" width="100%" height="100%" id="630555a449"><feColorMatrix values="0 0 0 0 1 0 0 0 0 1 0 0 0 0 1 0 0 0 1 0" color-interpolation-filters="sRGB"/></filter><clipPath id="647a3ce168"><path d="M 0 0 L 11.519531 0 L 11.519531 25.917969 L 0 25.917969 Z M 0 0 " clip-rule="nonzero"/></clipPath><clipPath id="35e64eb4bf"><path d="M -55.980469 -109.082031 C -93.257812 -109.082031 -123.480469 -78.863281 -123.480469 -41.582031 C -123.480469 -4.304688 -93.257812 25.917969 -55.980469 25.917969 C -18.699219 25.917969 11.519531 -4.304688 11.519531 -41.582031 C 11.519531 -78.863281 -18.699219 -109.082031 -55.980469 -109.082031 Z M -55.980469 -109.082031 " clip-rule="nonzero"/></clipPath><clipPath id="99f04d9a0c"><path d="M 0 0 L 16.503906 0 L 16.503906 9 L 0 9 Z M 0 0 " clip-rule="nonzero"/></clipPath><clipPath id="d8fa117953"><path d="M 140.417969 83 L 309.917969 83 L 309.917969 450 L 140.417969 450 Z M 140.417969 83 " clip-rule="nonzero"/></clipPath><clipPath id="42c36161a8"><path d="M 140.417969 146 L 302 146 L 302 224 L 140.417969 224 Z M 140.417969 146 " clip-rule="nonzero"/></clipPath><mask id="ab67f53852"><g filter="url(#630555a449)"><rect x="-45" width="540" fill="#000000" y="-44.999998" height="539.99998" fill-opacity="0.3"/></g></mask><clipPath id="3d584fbc06"><path d="M 0.417969 0.398438 L 161.441406 0.398438 L 161.441406 77 L 0.417969 77 Z M 0.417969 0.398438 " clip-rule="nonzero"/></clipPath><clipPath id="5250332249"><rect x="0" width="162" y="0" height="78"/></clipPath><clipPath id="35b5910705"><path d="M 140.417969 45 L 293 45 L 293 401 L 140.417969 401 Z M 140.417969 45 " clip-rule="nonzero"/></clipPath><clipPath id="bade1b161b"><path d="M 140.417969 53 L 293 53 L 293 401 L 140.417969 401 Z M 140.417969 53 " clip-rule="nonzero"/></clipPath><mask id="963563c060"><g filter="url(#630555a449)"><rect x="-45" width="540" fill="#000000" y="-44.999998" height="539.99998" fill-opacity="0.8"/></g></mask><clipPath id="4f54d5c092"><path d="M 0.320312 1 L 153.441406 1 L 153.441406 204.800781 L 0.320312 204.800781 Z M 0.320312 1 " clip-rule="nonzero"/></clipPath><clipPath id="f64f328a76"><rect x="0" width="154" y="0" height="205"/></clipPath><mask id="0082d7daf0"><g filter="url(#630555a449)"><rect x="-45" width="540" fill="#000000" y="-44.999998" height="539.99998" fill-opacity="0.5"/></g></mask><clipPath id="188353f057"><path d="M 1 1 L 44 1 L 44 26.71875 L 1 26.71875 Z M 1 1 " clip-rule="nonzero"/></clipPath><clipPath id="5e8561a9c9"><rect x="0" width="45" y="0" height="27"/></clipPath><mask id="3c2000f67c"><g filter="url(#630555a449)"><rect x="-45" width="540" fill="#000000" y="-44.999998" height="539.99998" fill-opacity="0.3"/></g></mask><clipPath id="73d7068d97"><path d="M 1 0.441406 L 36 0.441406 L 36 26.839844 L 1 26.839844 Z M 1 0.441406 " clip-rule="nonzero"/></clipPath><clipPath id="5790e6818e"><rect x="0" width="37" y="0" height="27"/></clipPath><clipPath id="b42acfe58f"><path d="M 140.417969 264 L 309.917969 264 L 309.917969 402 L 140.417969 402 Z M 140.417969 264 " clip-rule="nonzero"/></clipPath><mask id="04a7f837d1"><g filter="url(#630555a449)"><rect x="-45" width="540" fill="#000000" y="-44.999998" height="539.99998" fill-opacity="0.5"/></g></mask><clipPath id="3b1d8319db"><path d="M 0.417969 1 L 169.917969 1 L 169.917969 137 L 0.417969 137 Z M 0.417969 1 " clip-rule="nonzero"/></clipPath><clipPath id="812f17f1c4"><rect x="0" width="170" y="0" height="138"/></clipPath><mask id="a477480a90"><g filter="url(#630555a449)"><rect x="-45" width="540" fill="#000000" y="-44.999998" height="539.99998" fill-opacity="0.4"/></g></mask><clipPath id="1078937e42"><path d="M 1 0.28125 L 27 0.28125 L 27 18 L 1 18 Z M 1 0.28125 " clip-rule="nonzero"/></clipPath><clipPath id="850042eb29"><rect x="0" width="28" y="0" height="19"/></clipPath><mask id="1c40fccf87"><g filter="url(#630555a449)"><rect x="-45" width="540" fill="#000000" y="-44.999998" height="539.99998" fill-opacity="0.4"/></g></mask><clipPath id="cf7aeeae97"><path d="M 0 0.441406 L 43.441406 0.441406 L 43.441406 43 L 0 43 Z M 0 0.441406 " clip-rule="nonzero"/></clipPath><clipPath id="51bb4e650d"><rect x="0" width="44" y="0" height="44"/></clipPath><mask id="6e8204be8e"><g filter="url(#630555a449)"><rect x="-45" width="540" fill="#000000" y="-44.999998" height="539.99998" fill-opacity="0.4"/></g></mask><clipPath id="bb33afd97f"><path d="M 1 0.441406 L 35.441406 0.441406 L 35.441406 35 L 1 35 Z M 1 0.441406 " clip-rule="nonzero"/></clipPath><clipPath id="522f4e5881"><rect x="0" width="36" y="0" height="35"/></clipPath><mask id="e960868c91"><g filter="url(#630555a449)"><rect x="-45" width="540" fill="#000000" y="-44.999998" height="539.99998" fill-opacity="0.5"/></g></mask><clipPath id="8d0b3257ff"><rect x="0" width="130" y="0" height="121"/></clipPath><mask id="5578243aed"><g filter="url(#630555a449)"><rect x="-45" width="540" fill="#000000" y="-44.999998" height="539.99998" fill-opacity="0.7"/></g></mask><clipPath id="d8c95ed810"><path d="M 1 0.121094 L 44 0.121094 L 44 314 L 1 314 Z M 1 0.121094 " clip-rule="nonzero"/></clipPath><clipPath id="56226b2883"><rect x="0" width="45" y="0" height="315"/></clipPath><mask id="77b8eb5a86"><g filter="url(#630555a449)"><rect x="-45" width="540" fill="#000000" y="-44.999998" height="539.99998" fill-opacity="0.5"/></g></mask><clipPath id="faba85d6a7"><path d="M 1 1 L 69.839844 1 L 69.839844 111.441406 L 1 111.441406 Z M 1 1 " clip-rule="nonzero"/></clipPath><clipPath id="46a77d2b4c"><rect x="0" width="70" y="0" height="112"/></clipPath><mask id="61e1168fde"><g filter="url(#630555a449)"><rect x="-45" width="540" fill="#000000" y="-44.999998" height="539.99998" fill-opacity="0.5"/></g></mask><clipPath id="354650f1a0"><path d="M 1 1 L 112 1 L 112 263.71875 L 1 263.71875 Z M 1 1 " clip-rule="nonzero"/></clipPath><clipPath id="1dd970659b"><rect x="0" width="113" y="0" height="264"/></clipPath><mask id="2b4a7263ca"><g filter="url(#630555a449)"><rect x="-45" width="540" fill="#000000" y="-44.999998" height="539.99998" fill-opacity="0.3"/></g></mask><clipPath id="8bf601e40a"><path d="M 1 0.121094 L 27 0.121094 L 27 51.71875 L 1 51.71875 Z M 1 0.121094 " clip-rule="nonzero"/></clipPath><clipPath id="dc6c60eea2"><rect x="0" width="28" y="0" height="52"/></clipPath><mask id="984a5afbec"><g filter="url(#630555a449)"><rect x="-45" width="540" fill="#000000" y="-44.999998" height="539.99998" fill-opacity="0.5"/></g></mask><clipPath id="f6783a698c"><path d="M 0.320312 1 L 77.839844 1 L 77.839844 69 L 0.320312 69 Z M 0.320312 1 " clip-rule="nonzero"/></clipPath><clipPath id="a426c36e2c"><rect x="0" width="78" y="0" height="70"/></clipPath><mask id="f15c50666f"><g filter="url(#630555a449)"><rect x="-45" width="540" fill="#000000" y="-44.999998" height="539.99998" fill-opacity="0.3"/></g></mask><clipPath id="39db090f2b"><path d="M 1 1 L 26.921875 1 L 26.921875 52 L 1 52 Z M 1 1 " clip-rule="nonzero"/></clipPath><clipPath id="19b815ce53"><rect x="0" width="27" y="0" height="53"/></clipPath></defs><g clip-path="url(#647a3ce168)"><g clip-path="url(#35e64eb4bf)"><path fill="#e1e1e1" d="M -123.480469 -109.082031 L 11.519531 -109.082031 L 11.519531 25.917969 L -123.480469 25.917969 Z M -123.480469 -109.082031 " fill-opacity="1" fill-rule="nonzero"/></g></g><path fill="#c700ff" d="M -2.902344 -0.488281 L 5.882812 -0.488281 L 5.882812 8.296875 L -2.902344 8.296875 Z M -2.902344 -0.488281 " fill-opacity="1" fill-rule="nonzero"/><g clip-path="url(#99f04d9a0c)"><path fill="#000000" d="M 10.5625 -89.878906 L 16.363281 -89.878906 L 16.363281 -95.667969 L 10.5625 -95.667969 L 10.5625 -101.457031 L 4.765625 -101.457031 L 4.765625 -107.246094 L -1.035156 -107.246094 L -1.035156 -136.195312 L -30.027344 -136.195312 L -30.027344 -159.355469 L -41.625 -159.355469 L -41.625 -153.566406 L -47.425781 -153.566406 L -47.425781 -147.773438 L -53.222656 -147.773438 L -53.222656 -141.984375 L -59.023438 -141.984375 L -59.023438 -147.773438 L -64.824219 -147.773438 L -64.824219 -153.566406 L -70.621094 -153.566406 L -70.621094 -159.355469 L -82.214844 -159.355469 L -82.214844 -147.773438 L -88.011719 -147.773438 L -88.011719 -141.984375 L -93.8125 -141.984375 L -93.8125 -147.773438 L -99.609375 -147.773438 L -99.609375 -153.566406 L -117.007812 -153.566406 L -117.007812 -130.40625 L -146 -130.40625 L -146 -124.617188 L -140.203125 -124.617188 L -140.203125 -101.457031 L -146 -101.457031 L -146 -95.667969 L -151.800781 -95.667969 L -151.800781 -89.878906 L -157.597656 -89.878906 L -157.597656 -84.089844 L -163.398438 -84.089844 L -163.398438 -78.296875 L -146 -78.296875 L -146 -49.355469 L -122.804688 -49.355469 L -122.804688 -37.773438 L -128.605469 -37.773438 L -128.605469 -14.617188 L -134.402344 -14.617188 L -134.402344 8.542969 L -128.605469 8.542969 L -128.605469 2.753906 L -117.007812 2.753906 L -117.007812 -3.035156 L -111.207031 -3.035156 L -111.207031 -8.828125 L -105.410156 -8.828125 L -105.410156 -14.617188 L -99.609375 -14.617188 L -99.609375 -20.40625 L -93.8125 -20.40625 L -93.8125 -26.195312 L -82.214844 -26.195312 L -82.214844 -20.40625 L -76.414062 -20.40625 L -76.414062 -8.828125 L -70.621094 -8.828125 L -70.621094 -14.617188 L -64.824219 -14.617188 L -64.824219 -20.40625 L -59.023438 -20.40625 L -59.023438 -26.195312 L -41.625 -26.195312 L -41.625 -20.40625 L -35.828125 -20.40625 L -35.828125 -14.617188 L -24.230469 -14.617188 L -24.230469 -49.355469 L 10.5625 -49.355469 L 10.5625 -55.144531 L 4.765625 -55.144531 L 4.765625 -60.933594 L -1.035156 -60.933594 L -1.035156 -66.722656 L -6.832031 -66.722656 L -6.832031 -84.089844 L -1.035156 -84.089844 L -1.035156 -89.878906 Z M 10.5625 -89.878906 " fill-opacity="1" fill-rule="evenodd"/></g><g clip-path="url(#d8fa117953)"><path fill="#b4cf00" d="M 250.386719 163.550781 L 241.929688 163.550781 L 235.898438 153.316406 L 238.707031 143.585938 L 250.386719 143.082031 Z M 199.632812 205.847656 L 199.632812 197.386719 L 191.171875 197.386719 L 191.171875 188.929688 L 182.714844 188.929688 L 182.714844 180.46875 L 140.417969 180.46875 L 140.417969 188.929688 L 148.875 188.929688 L 148.875 197.386719 L 157.335938 197.386719 L 157.335938 205.847656 L 165.796875 205.847656 L 165.796875 214.308594 L 182.714844 214.308594 L 182.714844 222.765625 L 199.632812 222.765625 Z M 174.253906 265.0625 L 140.417969 265.0625 L 140.417969 273.523438 L 148.875 273.523438 L 148.875 290.441406 L 157.335938 290.441406 L 157.335938 307.359375 L 165.796875 307.359375 L 165.796875 315.820312 L 177.078125 322.710938 L 207.605469 313.496094 L 199.632812 298.902344 L 199.632812 290.441406 L 205.15625 282.824219 L 199.632812 273.523438 L 191.171875 273.523438 L 191.171875 265.0625 Z M 241.929688 116.570312 L 250.386719 112.792969 L 250.386719 95.875 L 241.929688 95.875 Z M 191.171875 248.144531 L 191.171875 265.0625 L 199.632812 265.0625 L 199.632812 239.683594 L 191.171875 239.683594 Z M 199.632812 231.226562 L 199.632812 239.683594 L 208.09375 239.683594 L 208.09375 222.765625 L 199.632812 222.765625 Z M 241.929688 87.417969 L 237.699219 83.851562 L 233.46875 87.417969 L 233.46875 95.875 L 241.929688 95.875 Z M 225.011719 434.25 L 225.011719 451.167969 L 233.46875 451.167969 L 233.46875 425.792969 L 225.011719 425.792969 Z M 250.386719 231.226562 L 258.847656 231.226562 L 258.847656 222.765625 L 253.898438 219.109375 L 250.386719 222.765625 Z M 209.765625 385.527344 L 216.550781 400.414062 L 225.011719 400.414062 L 225.011719 391.953125 Z M 301.144531 332.738281 L 275.765625 332.738281 L 275.765625 341.199219 L 258.847656 341.199219 L 258.847656 349.65625 L 250.386719 349.65625 L 250.386719 358.117188 L 241.929688 358.117188 L 241.929688 332.738281 L 229.238281 329.695312 L 233.46875 358.117188 L 233.46875 366.574219 L 228.015625 375.035156 L 233.46875 383.496094 L 233.46875 400.414062 L 225.011719 400.414062 L 225.011719 408.871094 L 233.46875 408.871094 L 233.46875 425.792969 L 241.929688 425.792969 L 241.929688 400.414062 L 250.386719 400.414062 L 250.386719 391.953125 L 241.929688 391.953125 L 241.929688 383.496094 L 250.386719 383.496094 L 250.386719 391.953125 L 258.847656 391.953125 L 258.847656 400.414062 L 284.226562 400.414062 L 284.226562 391.953125 L 292.683594 391.953125 L 292.683594 383.496094 L 301.144531 383.496094 L 301.144531 366.574219 L 309.605469 366.574219 L 309.605469 332.738281 Z M 241.929688 239.683594 L 250.386719 243.515625 L 250.386719 231.226562 L 241.929688 231.226562 Z M 233.46875 205.847656 L 225.011719 205.847656 L 225.011719 214.308594 L 233.46875 214.308594 Z M 225.011719 222.765625 L 225.011719 214.308594 L 208.09375 214.308594 L 208.09375 222.765625 Z M 225.011719 188.929688 L 233.46875 188.929688 L 233.46875 205.847656 L 241.929688 205.847656 L 246.160156 199.457031 L 267.308594 188.929688 L 275.765625 188.929688 L 275.765625 180.46875 L 284.226562 180.46875 L 284.226562 172.011719 L 292.683594 172.011719 L 292.683594 163.550781 L 301.144531 163.550781 L 301.144531 155.089844 L 258.847656 155.089844 L 258.847656 163.550781 L 250.386719 163.550781 L 250.386719 172.011719 L 241.929688 172.011719 L 241.929688 163.550781 L 232.15625 158.851562 L 209.691406 164.828125 L 199.632812 172.011719 L 199.632812 180.46875 L 208.09375 180.46875 L 208.09375 188.929688 L 216.550781 188.929688 L 216.550781 205.847656 L 225.011719 205.847656 Z M 225.011719 188.929688 " fill-opacity="1" fill-rule="nonzero"/></g><g clip-path="url(#42c36161a8)"><g mask="url(#ab67f53852)"><g transform="matrix(1, 0, 0, 1, 140, 146)"><g clip-path="url(#5250332249)"><g clip-path="url(#3d584fbc06)"><path fill="#097738" d="M 161.144531 9.089844 L 152.683594 9.089844 L 152.683594 17.550781 L 161.144531 17.550781 Z M 144.226562 26.011719 L 135.765625 26.011719 L 135.765625 34.46875 L 144.226562 34.46875 Z M 152.683594 17.550781 L 144.226562 17.550781 L 144.226562 26.011719 L 152.683594 26.011719 Z M 135.765625 34.46875 L 118.847656 34.46875 L 118.847656 42.929688 L 135.765625 42.929688 Z M 8.875 42.929688 L 8.875 51.386719 L 17.335938 51.386719 L 17.335938 42.929688 Z M 0.417969 34.46875 L 0.417969 42.929688 L 8.875 42.929688 L 8.875 34.46875 Z M 42.714844 59.847656 L 42.714844 51.386719 L 17.335938 51.386719 L 17.335938 59.847656 L 25.796875 59.847656 L 25.796875 68.308594 L 42.714844 68.308594 L 42.714844 76.765625 L 59.632812 76.765625 L 59.632812 59.847656 Z M 101.929688 59.847656 L 93.46875 59.847656 L 93.46875 17.550781 L 101.929688 17.550781 Z M 110.386719 9.089844 L 110.386719 0.632812 L 101.929688 0.632812 L 101.929688 17.550781 L 110.386719 17.550781 Z M 110.386719 9.089844 " fill-opacity="1" fill-rule="nonzero"/></g></g></g></g></g><g clip-path="url(#35b5910705)"><path fill="#ff66c4" d="M 292.683594 265.0625 L 292.683594 290.441406 L 284.226562 290.441406 L 284.226562 298.902344 L 292.683594 298.902344 L 292.683594 315.820312 L 284.226562 315.820312 L 284.226562 324.277344 L 275.765625 324.277344 L 275.765625 332.738281 L 250.386719 332.738281 L 250.386719 324.277344 L 241.929688 324.277344 L 241.929688 332.738281 L 233.46875 332.738281 L 233.46875 358.117188 L 225.011719 358.117188 L 225.011719 366.574219 L 233.46875 366.574219 L 233.46875 383.496094 L 225.011719 383.496094 L 225.011719 391.953125 L 216.550781 391.953125 L 216.550781 400.414062 L 191.171875 400.414062 L 191.171875 391.953125 L 182.714844 391.953125 L 182.714844 400.414062 L 157.335938 400.414062 L 157.335938 391.953125 L 148.875 391.953125 L 148.875 383.496094 L 140.417969 383.496094 L 140.417969 366.574219 L 148.875 366.574219 L 148.875 358.117188 L 140.417969 358.117188 L 140.417969 332.738281 L 148.875 332.738281 L 148.875 324.277344 L 157.335938 324.277344 L 157.335938 315.820312 L 174.253906 315.820312 L 174.253906 307.359375 L 199.632812 307.359375 L 199.632812 298.902344 L 208.09375 298.902344 L 208.09375 290.441406 L 199.632812 290.441406 L 199.632812 265.0625 L 208.09375 265.0625 L 208.09375 256.605469 L 216.550781 256.605469 L 216.550781 248.144531 L 233.46875 248.144531 L 233.46875 239.683594 L 258.847656 239.683594 L 258.847656 248.144531 L 275.765625 248.144531 L 275.765625 256.605469 L 284.226562 256.605469 L 284.226562 265.0625 Z M 258.847656 222.765625 L 258.847656 214.308594 L 267.308594 214.308594 L 267.308594 188.929688 L 258.847656 188.929688 L 258.847656 180.46875 L 250.386719 180.46875 L 250.386719 188.929688 L 241.929688 188.929688 L 241.929688 214.308594 L 250.386719 214.308594 L 250.386719 222.765625 Z M 233.46875 87.417969 L 241.929688 87.417969 L 241.929688 78.957031 L 250.386719 78.957031 L 250.386719 53.578125 L 241.929688 53.578125 L 241.929688 45.121094 L 233.46875 45.121094 L 233.46875 53.578125 L 225.011719 53.578125 L 225.011719 78.957031 L 233.46875 78.957031 Z M 174.253906 146.632812 L 182.714844 146.632812 L 182.714844 155.089844 L 191.171875 155.089844 L 191.171875 163.550781 L 199.632812 163.550781 L 199.632812 172.011719 L 233.46875 172.011719 L 233.46875 163.550781 L 241.929688 163.550781 L 241.929688 146.632812 L 250.386719 146.632812 L 250.386719 138.171875 L 258.847656 138.171875 L 258.847656 121.253906 L 250.386719 121.253906 L 250.386719 112.792969 L 233.46875 112.792969 L 233.46875 104.335938 L 216.550781 104.335938 L 216.550781 112.792969 L 208.09375 112.792969 L 208.09375 104.335938 L 191.171875 104.335938 L 191.171875 112.792969 L 174.253906 112.792969 L 174.253906 121.253906 L 165.796875 121.253906 L 165.796875 138.171875 L 174.253906 138.171875 Z M 174.253906 146.632812 " fill-opacity="1" fill-rule="nonzero"/></g><path fill="#b4cf00" d="M 258.847656 281.980469 L 258.847656 290.441406 L 250.386719 290.441406 L 250.386719 281.980469 Z M 241.929688 298.902344 L 250.386719 298.902344 L 250.386719 290.441406 L 241.929688 290.441406 Z M 250.386719 273.523438 L 241.929688 273.523438 L 241.929688 281.980469 L 250.386719 281.980469 Z M 233.46875 281.980469 L 233.46875 290.441406 L 241.929688 290.441406 L 241.929688 281.980469 Z M 191.171875 358.117188 L 199.632812 358.117188 L 199.632812 349.65625 L 191.171875 349.65625 Z M 182.714844 366.574219 L 191.171875 366.574219 L 191.171875 358.117188 L 182.714844 358.117188 Z M 191.171875 341.199219 L 182.714844 341.199219 L 182.714844 349.65625 L 191.171875 349.65625 Z M 174.253906 349.65625 L 174.253906 358.117188 L 182.714844 358.117188 L 182.714844 349.65625 Z M 174.253906 349.65625 " fill-opacity="1" fill-rule="nonzero"/><g clip-path="url(#bade1b161b)"><path fill="#ffc5df" d="M 284.226562 307.359375 L 284.226562 298.902344 L 292.683594 298.902344 L 292.683594 315.820312 L 284.226562 315.820312 Z M 284.226562 265.0625 L 284.226562 290.441406 L 292.683594 290.441406 L 292.683594 265.0625 Z M 275.765625 324.277344 L 284.226562 324.277344 L 284.226562 315.820312 L 275.765625 315.820312 Z M 284.226562 265.0625 L 284.226562 256.605469 L 275.765625 256.605469 L 275.765625 265.0625 Z M 267.308594 290.441406 L 267.308594 298.902344 L 284.226562 298.902344 L 284.226562 290.441406 Z M 258.847656 324.277344 L 250.386719 324.277344 L 250.386719 332.738281 L 275.765625 332.738281 L 275.765625 324.277344 Z M 258.847656 281.980469 L 258.847656 290.441406 L 267.308594 290.441406 L 267.308594 281.980469 Z M 258.847656 265.0625 L 267.308594 265.0625 L 267.308594 256.605469 L 275.765625 256.605469 L 275.765625 248.144531 L 258.847656 248.144531 Z M 250.386719 273.523438 L 258.847656 273.523438 L 258.847656 265.0625 L 250.386719 265.0625 Z M 258.847656 222.765625 L 258.847656 214.308594 L 267.308594 214.308594 L 267.308594 188.929688 L 258.847656 188.929688 L 258.847656 205.847656 L 241.929688 205.847656 L 241.929688 214.308594 L 250.386719 214.308594 L 250.386719 222.765625 Z M 250.386719 138.171875 L 258.847656 138.171875 L 258.847656 121.253906 L 250.386719 121.253906 Z M 250.386719 307.359375 L 250.386719 298.902344 L 241.929688 298.902344 L 241.929688 324.277344 L 250.386719 324.277344 Z M 250.386719 248.144531 L 258.847656 248.144531 L 258.847656 239.683594 L 233.46875 239.683594 L 233.46875 248.144531 Z M 241.929688 146.632812 L 250.386719 146.632812 L 250.386719 138.171875 L 241.929688 138.171875 Z M 241.929688 273.523438 L 241.929688 265.0625 L 233.46875 265.0625 L 233.46875 273.523438 Z M 241.929688 121.253906 L 250.386719 121.253906 L 250.386719 112.792969 L 233.46875 112.792969 L 233.46875 121.253906 Z M 233.46875 87.417969 L 241.929688 87.417969 L 241.929688 78.957031 L 250.386719 78.957031 L 250.386719 53.578125 L 241.929688 53.578125 L 241.929688 70.496094 L 225.011719 70.496094 L 225.011719 78.957031 L 233.46875 78.957031 Z M 225.011719 383.496094 L 233.46875 383.496094 L 233.46875 366.574219 L 225.011719 366.574219 Z M 225.011719 349.65625 L 225.011719 358.117188 L 233.46875 358.117188 L 233.46875 341.199219 L 225.011719 341.199219 Z M 225.011719 324.277344 L 216.550781 324.277344 L 216.550781 332.738281 L 241.929688 332.738281 L 241.929688 324.277344 Z M 233.46875 281.980469 L 225.011719 281.980469 L 225.011719 290.441406 L 233.46875 290.441406 Z M 225.011719 265.0625 L 233.46875 265.0625 L 233.46875 248.144531 L 216.550781 248.144531 L 216.550781 256.605469 L 225.011719 256.605469 Z M 225.011719 172.011719 L 233.46875 172.011719 L 233.46875 163.550781 L 225.011719 163.550781 Z M 225.011719 146.632812 L 182.714844 146.632812 L 182.714844 155.089844 L 191.171875 155.089844 L 191.171875 163.550781 L 199.632812 163.550781 L 199.632812 155.089844 L 233.46875 155.089844 L 233.46875 163.550781 L 241.929688 163.550781 L 241.929688 146.632812 Z M 233.46875 112.792969 L 233.46875 104.335938 L 216.550781 104.335938 L 216.550781 112.792969 Z M 216.550781 391.953125 L 225.011719 391.953125 L 225.011719 383.496094 L 216.550781 383.496094 Z M 225.011719 298.902344 L 225.011719 290.441406 L 208.09375 290.441406 L 208.09375 298.902344 Z M 208.09375 358.117188 L 208.09375 366.574219 L 225.011719 366.574219 L 225.011719 358.117188 Z M 208.09375 315.820312 L 208.09375 324.277344 L 216.550781 324.277344 L 216.550781 315.820312 Z M 216.550781 256.605469 L 208.09375 256.605469 L 208.09375 265.0625 L 216.550781 265.0625 Z M 216.550781 121.253906 L 216.550781 112.792969 L 208.09375 112.792969 L 208.09375 121.253906 Z M 199.632812 391.953125 L 191.171875 391.953125 L 191.171875 400.414062 L 216.550781 400.414062 L 216.550781 391.953125 Z M 199.632812 349.65625 L 199.632812 358.117188 L 208.09375 358.117188 L 208.09375 349.65625 Z M 199.632812 332.738281 L 208.09375 332.738281 L 208.09375 324.277344 L 199.632812 324.277344 Z M 208.09375 298.902344 L 199.632812 298.902344 L 199.632812 315.820312 L 208.09375 315.820312 Z M 208.09375 273.523438 L 208.09375 265.0625 L 199.632812 265.0625 L 199.632812 290.441406 L 208.09375 290.441406 Z M 208.09375 172.011719 L 208.09375 163.550781 L 199.632812 163.550781 L 199.632812 172.011719 Z M 208.09375 138.171875 L 233.46875 138.171875 L 233.46875 129.714844 L 191.171875 129.714844 L 191.171875 138.171875 Z M 208.09375 112.792969 L 208.09375 104.335938 L 191.171875 104.335938 L 191.171875 112.792969 Z M 191.171875 341.199219 L 199.632812 341.199219 L 199.632812 332.738281 L 191.171875 332.738281 Z M 191.171875 375.035156 L 191.171875 366.574219 L 182.714844 366.574219 L 182.714844 391.953125 L 191.171875 391.953125 Z M 191.171875 315.820312 L 191.171875 307.359375 L 174.253906 307.359375 L 174.253906 315.820312 Z M 191.171875 121.253906 L 191.171875 112.792969 L 174.253906 112.792969 L 174.253906 121.253906 Z M 182.714844 341.199219 L 182.714844 332.738281 L 174.253906 332.738281 L 174.253906 341.199219 Z M 174.253906 138.171875 L 174.253906 146.632812 L 182.714844 146.632812 L 182.714844 138.171875 Z M 165.796875 391.953125 L 157.335938 391.953125 L 157.335938 400.414062 L 182.714844 400.414062 L 182.714844 391.953125 Z M 174.253906 349.65625 L 165.796875 349.65625 L 165.796875 358.117188 L 174.253906 358.117188 Z M 165.796875 332.738281 L 174.253906 332.738281 L 174.253906 315.820312 L 157.335938 315.820312 L 157.335938 324.277344 L 165.796875 324.277344 Z M 174.253906 129.714844 L 174.253906 121.253906 L 165.796875 121.253906 L 165.796875 138.171875 L 174.253906 138.171875 Z M 165.796875 366.574219 L 165.796875 358.117188 L 148.875 358.117188 L 148.875 366.574219 Z M 148.875 383.496094 L 148.875 391.953125 L 157.335938 391.953125 L 157.335938 383.496094 Z M 157.335938 324.277344 L 148.875 324.277344 L 148.875 332.738281 L 157.335938 332.738281 Z M 148.875 366.574219 L 140.417969 366.574219 L 140.417969 383.496094 L 148.875 383.496094 Z M 148.875 341.199219 L 148.875 332.738281 L 140.417969 332.738281 L 140.417969 358.117188 L 148.875 358.117188 Z M 148.875 341.199219 " fill-opacity="1" fill-rule="nonzero"/></g><g mask="url(#963563c060)"><g transform="matrix(1, 0, 0, 1, 148, 154)"><g clip-path="url(#f64f328a76)"><g clip-path="url(#4f54d5c092)"><path fill="#ffe014" d="M 153.144531 178.738281 L 153.144531 187.199219 L 127.765625 187.199219 L 127.765625 178.738281 Z M 127.765625 9.550781 L 144.683594 9.550781 L 144.683594 1.089844 L 110.847656 1.089844 L 110.847656 9.550781 Z M 110.847656 187.199219 L 110.847656 195.65625 L 127.765625 195.65625 L 127.765625 187.199219 Z M 102.386719 204.117188 L 110.847656 204.117188 L 110.847656 195.65625 L 102.386719 195.65625 Z M 110.847656 9.550781 L 102.386719 9.550781 L 102.386719 18.011719 L 110.847656 18.011719 Z M 43.171875 51.847656 L 51.632812 51.847656 L 51.632812 43.386719 L 43.171875 43.386719 Z M 34.714844 34.929688 L 34.714844 43.386719 L 43.171875 43.386719 L 43.171875 34.929688 Z M 26.253906 111.0625 L 0.875 111.0625 L 0.875 119.523438 L 43.171875 119.523438 L 43.171875 111.0625 Z M 26.253906 26.46875 L 0.875 26.46875 L 0.875 34.929688 L 34.714844 34.929688 L 34.714844 26.46875 Z M 26.253906 26.46875 " fill-opacity="1" fill-rule="nonzero"/></g></g></g></g><g mask="url(#0082d7daf0)"><g transform="matrix(1, 0, 0, 1, 249, 340)"><g clip-path="url(#5e8561a9c9)"><g clip-path="url(#188353f057)"><path fill="#ffe014" d="M 1.386719 26.574219 L 1.386719 18.117188 L 9.847656 18.117188 L 9.847656 26.574219 Z M 43.683594 9.65625 L 43.683594 1.199219 L 26.765625 1.199219 L 26.765625 9.65625 Z M 26.765625 18.117188 L 26.765625 9.65625 L 9.847656 9.65625 L 9.847656 18.117188 Z M 26.765625 18.117188 " fill-opacity="1" fill-rule="nonzero"/></g></g></g></g><g mask="url(#3c2000f67c)"><g transform="matrix(1, 0, 0, 1, 249, 349)"><g clip-path="url(#5790e6818e)"><g clip-path="url(#73d7068d97)"><path fill="#ffe014" d="M 1.386719 26.035156 L 1.386719 17.574219 L 9.847656 17.574219 L 9.847656 26.035156 Z M 35.226562 0.65625 L 26.765625 0.65625 L 26.765625 9.117188 L 35.226562 9.117188 Z M 26.765625 17.574219 L 26.765625 9.117188 L 9.847656 9.117188 L 9.847656 17.574219 Z M 26.765625 17.574219 " fill-opacity="1" fill-rule="nonzero"/></g></g></g></g><g clip-path="url(#b42acfe58f)"><g mask="url(#04a7f837d1)"><g transform="matrix(1, 0, 0, 1, 140, 264)"><g clip-path="url(#812f17f1c4)"><g clip-path="url(#3b1d8319db)"><path fill="#097738" d="M 144.226562 102.574219 L 135.765625 102.574219 L 135.765625 94.117188 L 144.226562 94.117188 Z M 161.144531 68.738281 L 161.144531 77.199219 L 152.683594 77.199219 L 152.683594 85.65625 L 144.226562 85.65625 L 144.226562 94.117188 L 152.683594 94.117188 L 152.683594 102.574219 L 144.226562 102.574219 L 144.226562 111.035156 L 135.765625 111.035156 L 135.765625 102.574219 L 127.308594 102.574219 L 127.308594 111.035156 L 118.847656 111.035156 L 118.847656 119.496094 L 110.386719 119.496094 L 110.386719 127.953125 L 118.847656 127.953125 L 118.847656 136.414062 L 144.226562 136.414062 L 144.226562 127.953125 L 152.683594 127.953125 L 152.683594 119.496094 L 161.144531 119.496094 L 161.144531 102.574219 L 169.605469 102.574219 L 169.605469 68.738281 Z M 0.417969 1.0625 L 0.417969 9.523438 L 8.875 9.523438 L 8.875 1.0625 Z M 51.171875 9.523438 L 59.632812 9.523438 L 59.632812 43.359375 L 17.335938 43.359375 L 17.335938 26.441406 L 8.875 26.441406 L 8.875 9.523438 L 34.253906 9.523438 L 34.253906 17.980469 L 25.796875 17.980469 L 25.796875 26.441406 L 34.253906 26.441406 L 34.253906 17.980469 L 42.714844 17.980469 L 42.714844 26.441406 L 51.171875 26.441406 Z M 51.171875 9.523438 " fill-opacity="1" fill-rule="nonzero"/></g></g></g></g></g><g mask="url(#a477480a90)"><g transform="matrix(1, 0, 0, 1, 156, 281)"><g clip-path="url(#850042eb29)"><g clip-path="url(#1078937e42)"><path fill="#b4cf00" d="M 9.796875 9.441406 L 1.335938 9.441406 L 1.335938 0.980469 L 9.796875 0.980469 Z M 9.796875 9.441406 L 9.796875 17.902344 L 26.714844 17.902344 L 26.714844 9.441406 Z M 9.796875 9.441406 " fill-opacity="1" fill-rule="nonzero"/></g></g></g></g><g mask="url(#1c40fccf87)"><g transform="matrix(1, 0, 0, 1, 258, 349)"><g clip-path="url(#51bb4e650d)"><g clip-path="url(#cf7aeeae97)"><path fill="#b4cf00" d="M 26.226562 17.574219 L 34.683594 17.574219 L 34.683594 34.496094 L 26.226562 34.496094 L 26.226562 42.953125 L 0.847656 42.953125 L 0.847656 34.496094 L 9.308594 34.496094 L 9.308594 26.035156 L 26.226562 26.035156 Z M 34.683594 0.65625 L 34.683594 17.574219 L 43.144531 17.574219 L 43.144531 0.65625 Z M 34.683594 0.65625 " fill-opacity="1" fill-rule="nonzero"/></g></g></g></g><g mask="url(#6e8204be8e)"><g transform="matrix(1, 0, 0, 1, 266, 349)"><g clip-path="url(#522f4e5881)"><g clip-path="url(#bb33afd97f)"><path fill="#b4cf00" d="M 9.765625 26.035156 L 18.226562 26.035156 L 18.226562 34.496094 L 1.308594 34.496094 L 1.308594 26.035156 Z M 18.226562 26.035156 L 26.683594 26.035156 L 26.683594 17.574219 L 18.226562 17.574219 Z M 26.683594 9.117188 L 35.144531 9.117188 L 35.144531 0.65625 L 26.683594 0.65625 Z M 26.683594 9.117188 " fill-opacity="1" fill-rule="nonzero"/></g></g></g></g><g mask="url(#e960868c91)"><g transform="matrix(1, 0, 0, 1, 156, 162)"><g clip-path="url(#8d0b3257ff)"><path fill="#ffe014" d="M 35.171875 119.980469 L 26.714844 119.980469 L 26.714844 111.523438 L 35.171875 111.523438 Z M 26.714844 35.386719 L 26.714844 43.847656 L 35.171875 43.847656 L 35.171875 35.386719 Z M 1.335938 35.386719 L 26.714844 35.386719 L 26.714844 26.929688 L 1.335938 26.929688 Z M 128.226562 1.550781 L 102.847656 1.550781 L 102.847656 10.011719 L 128.226562 10.011719 Z M 102.847656 10.011719 L 94.386719 10.011719 L 94.386719 18.46875 L 102.847656 18.46875 Z M 102.847656 10.011719 " fill-opacity="1" fill-rule="nonzero"/></g></g></g><g mask="url(#5578243aed)"><g transform="matrix(1, 0, 0, 1, 215, 87)"><g clip-path="url(#56226b2883)"><g clip-path="url(#d8c95ed810)"><path fill="#097738" d="M 35.386719 144.226562 L 43.847656 144.226562 L 43.847656 135.765625 L 35.386719 135.765625 Z M 26.929688 0.417969 L 18.46875 0.417969 L 18.46875 8.875 L 26.929688 8.875 Z M 26.929688 245.738281 L 18.46875 245.738281 L 18.46875 254.199219 L 26.929688 254.199219 Z M 35.386719 279.574219 L 35.386719 271.117188 L 26.929688 271.117188 L 26.929688 296.496094 L 35.386719 296.496094 Z M 26.929688 313.414062 L 35.386719 313.414062 L 35.386719 304.953125 L 26.929688 304.953125 Z M 1.550781 110.386719 L 10.011719 110.386719 L 10.011719 101.929688 L 1.550781 101.929688 Z M 10.011719 101.929688 L 18.46875 101.929688 L 18.46875 93.46875 L 10.011719 93.46875 Z M 26.929688 68.089844 L 35.386719 68.089844 L 35.386719 59.632812 L 26.929688 59.632812 Z M 18.46875 85.011719 L 26.929688 85.011719 L 26.929688 76.550781 L 18.46875 76.550781 Z M 1.550781 313.414062 L 10.011719 313.414062 L 10.011719 304.953125 L 1.550781 304.953125 Z M 35.386719 85.011719 L 35.386719 101.929688 L 26.929688 101.929688 L 26.929688 85.011719 Z M 35.386719 85.011719 " fill-opacity="1" fill-rule="nonzero"/></g></g></g></g><path fill="#b4cf00" d="M 182.714844 205.847656 L 182.714844 197.386719 L 165.796875 197.386719 L 165.796875 205.847656 Z M 275.765625 180.46875 L 275.765625 172.011719 L 258.847656 172.011719 L 258.847656 180.46875 Z M 275.765625 180.46875 " fill-opacity="1" fill-rule="nonzero"/><path fill="#ffe014" d="M 233.46875 332.738281 L 233.46875 341.199219 L 216.550781 341.199219 L 216.550781 332.738281 Z M 208.09375 324.277344 L 208.09375 332.738281 L 216.550781 332.738281 L 216.550781 324.277344 Z M 250.386719 214.308594 L 250.386719 222.765625 L 258.847656 222.765625 L 258.847656 214.308594 Z M 225.011719 163.550781 L 225.011719 172.011719 L 233.46875 172.011719 L 233.46875 163.550781 Z M 233.46875 155.089844 L 233.46875 163.550781 L 241.929688 163.550781 L 241.929688 155.089844 Z M 258.847656 205.847656 L 258.847656 214.308594 L 267.308594 214.308594 L 267.308594 205.847656 Z M 233.46875 78.957031 L 233.46875 87.417969 L 241.929688 87.417969 L 241.929688 78.957031 Z M 241.929688 70.496094 L 241.929688 78.957031 L 250.386719 78.957031 L 250.386719 70.496094 Z M 199.632812 315.820312 L 199.632812 324.277344 L 208.09375 324.277344 L 208.09375 315.820312 Z M 191.171875 307.359375 L 191.171875 315.820312 L 199.632812 315.820312 L 199.632812 307.359375 Z M 182.714844 349.65625 L 182.714844 358.117188 L 191.171875 358.117188 L 191.171875 349.65625 Z M 250.386719 281.980469 L 250.386719 290.441406 L 241.929688 290.441406 L 241.929688 281.980469 Z M 250.386719 281.980469 " fill-opacity="1" fill-rule="nonzero"/><g mask="url(#77b8eb5a86)"><g transform="matrix(1, 0, 0, 1, 156, 196)"><g clip-path="url(#46a77d2b4c)"><g clip-path="url(#faba85d6a7)"><path fill="#097738" d="M 43.632812 111.359375 L 35.171875 111.359375 L 35.171875 102.902344 L 43.632812 102.902344 Z M 9.796875 111.359375 L 1.335938 111.359375 L 1.335938 102.902344 L 9.796875 102.902344 Z M 35.171875 102.902344 L 26.714844 102.902344 L 26.714844 94.441406 L 35.171875 94.441406 Z M 26.714844 18.308594 L 26.714844 26.765625 L 35.171875 26.765625 L 35.171875 18.308594 Z M 60.550781 9.847656 L 69.011719 9.847656 L 69.011719 1.386719 L 60.550781 1.386719 Z M 60.550781 9.847656 " fill-opacity="1" fill-rule="nonzero"/></g></g></g></g><g mask="url(#61e1168fde)"><g transform="matrix(1, 0, 0, 1, 173, 61)"><g clip-path="url(#1dd970659b)"><g clip-path="url(#354650f1a0)"><path fill="#ffc5df" d="M 102.765625 254.820312 L 94.308594 254.820312 L 94.308594 263.277344 L 102.765625 263.277344 Z M 111.226562 246.359375 L 102.765625 246.359375 L 102.765625 254.820312 L 111.226562 254.820312 Z M 43.550781 246.359375 L 35.09375 246.359375 L 35.09375 254.820312 L 43.550781 254.820312 Z M 52.011719 254.820312 L 43.550781 254.820312 L 43.550781 263.277344 L 52.011719 263.277344 Z M 60.46875 229.441406 L 52.011719 229.441406 L 52.011719 237.902344 L 60.46875 237.902344 Z M 60.46875 204.0625 L 52.011719 204.0625 L 52.011719 212.523438 L 60.46875 212.523438 Z M 43.550781 220.980469 L 35.09375 220.980469 L 35.09375 229.441406 L 43.550781 229.441406 Z M 52.011719 195.605469 L 43.550781 195.605469 L 43.550781 204.0625 L 52.011719 204.0625 Z M 94.308594 229.441406 L 85.847656 229.441406 L 85.847656 237.902344 L 94.308594 237.902344 Z M 94.308594 204.0625 L 85.847656 204.0625 L 85.847656 212.523438 L 94.308594 212.523438 Z M 102.765625 195.605469 L 94.308594 195.605469 L 94.308594 204.0625 L 102.765625 204.0625 Z M 60.46875 94.089844 L 52.011719 94.089844 L 52.011719 102.550781 L 60.46875 102.550781 Z M 35.09375 94.089844 L 26.632812 94.089844 L 26.632812 102.550781 L 35.09375 102.550781 Z M 52.011719 102.550781 L 35.09375 102.550781 L 35.09375 111.011719 L 52.011719 111.011719 Z M 77.386719 68.714844 L 68.929688 68.714844 L 68.929688 77.171875 L 77.386719 77.171875 Z M 68.929688 77.171875 L 60.46875 77.171875 L 60.46875 85.632812 L 68.929688 85.632812 Z M 52.011719 51.792969 L 43.550781 51.792969 L 43.550781 60.253906 L 52.011719 60.253906 Z M 35.09375 51.792969 L 26.632812 51.792969 L 26.632812 60.253906 L 35.09375 60.253906 Z M 9.714844 68.714844 L 1.253906 68.714844 L 1.253906 77.171875 L 9.714844 77.171875 Z M 18.171875 77.171875 L 9.714844 77.171875 L 9.714844 85.632812 L 18.171875 85.632812 Z M 85.847656 136.386719 L 77.386719 136.386719 L 77.386719 144.847656 L 85.847656 144.847656 Z M 68.929688 1.039062 L 60.46875 1.039062 L 60.46875 9.496094 L 68.929688 9.496094 Z M 111.226562 220.980469 L 102.765625 220.980469 L 102.765625 229.441406 L 111.226562 229.441406 Z M 111.226562 220.980469 " fill-opacity="1" fill-rule="nonzero"/></g></g></g></g><g mask="url(#2b4a7263ca)"><g transform="matrix(1, 0, 0, 1, 232, 273)"><g clip-path="url(#dc6c60eea2)"><g clip-path="url(#8bf601e40a)"><path fill="#ffc5df" d="M 9.929688 0.523438 L 1.46875 0.523438 L 1.46875 8.980469 L 9.929688 8.980469 Z M 26.847656 0.523438 L 18.386719 0.523438 L 18.386719 8.980469 L 26.847656 8.980469 Z M 9.929688 17.441406 L 1.46875 17.441406 L 1.46875 25.902344 L 9.929688 25.902344 Z M 26.847656 17.441406 L 18.386719 17.441406 L 18.386719 25.902344 L 26.847656 25.902344 Z M 9.929688 42.820312 L 1.46875 42.820312 L 1.46875 51.277344 L 9.929688 51.277344 Z M 26.847656 42.820312 L 18.386719 42.820312 L 18.386719 51.277344 L 26.847656 51.277344 Z M 26.847656 42.820312 " fill-opacity="1" fill-rule="nonzero"/></g></g></g></g><g mask="url(#984a5afbec)"><g transform="matrix(1, 0, 0, 1, 148, 323)"><g clip-path="url(#a426c36e2c)"><g clip-path="url(#f6783a698c)"><path fill="#ffc5df" d="M 68.550781 60.496094 L 60.09375 60.496094 L 60.09375 68.953125 L 68.550781 68.953125 Z M 77.011719 52.035156 L 68.550781 52.035156 L 68.550781 60.496094 L 77.011719 60.496094 Z M 9.335938 52.035156 L 0.875 52.035156 L 0.875 60.496094 L 9.335938 60.496094 Z M 17.796875 60.496094 L 9.335938 60.496094 L 9.335938 68.953125 L 17.796875 68.953125 Z M 26.253906 35.117188 L 17.796875 35.117188 L 17.796875 43.574219 L 26.253906 43.574219 Z M 26.253906 9.738281 L 17.796875 9.738281 L 17.796875 18.199219 L 26.253906 18.199219 Z M 9.335938 26.65625 L 0.875 26.65625 L 0.875 35.117188 L 9.335938 35.117188 Z M 17.796875 1.277344 L 9.335938 1.277344 L 9.335938 9.738281 L 17.796875 9.738281 Z M 60.09375 35.117188 L 51.632812 35.117188 L 51.632812 43.574219 L 60.09375 43.574219 Z M 60.09375 9.738281 L 51.632812 9.738281 L 51.632812 18.199219 L 60.09375 18.199219 Z M 77.011719 26.65625 L 68.550781 26.65625 L 68.550781 35.117188 L 77.011719 35.117188 Z M 77.011719 26.65625 " fill-opacity="1" fill-rule="nonzero"/></g></g></g></g><g mask="url(#f15c50666f)"><g transform="matrix(1, 0, 0, 1, 173, 340)"><g clip-path="url(#19b815ce53)"><g clip-path="url(#39db090f2b)"><path fill="#ffc5df" d="M 9.714844 1.199219 L 1.253906 1.199219 L 1.253906 9.65625 L 9.714844 9.65625 Z M 26.632812 1.199219 L 18.171875 1.199219 L 18.171875 9.65625 L 26.632812 9.65625 Z M 9.714844 18.117188 L 1.253906 18.117188 L 1.253906 26.574219 L 9.714844 26.574219 Z M 26.632812 18.117188 L 18.171875 18.117188 L 18.171875 26.574219 L 26.632812 26.574219 Z M 9.714844 43.496094 L 1.253906 43.496094 L 1.253906 51.953125 L 9.714844 51.953125 Z M 26.632812 43.496094 L 18.171875 43.496094 L 18.171875 51.953125 L 26.632812 51.953125 Z M 26.632812 43.496094 " fill-opacity="1" fill-rule="nonzero"/></g></g></g></g></svg>