<svg xmlns="http://www.w3.org/2000/svg" xmlns:xlink="http://www.w3.org/1999/xlink" width="600" zoomAndPan="magnify" viewBox="0 0 450 449.999984" height="600" preserveAspectRatio="xMidYMid meet" version="1.0"><defs><clipPath id="3d6574bf80"><path d="M 0 0 L 11.519531 0 L 11.519531 25.917969 L 0 25.917969 Z M 0 0 " clip-rule="nonzero"/></clipPath><clipPath id="69876a6931"><path d="M -55.980469 -109.082031 C -93.257812 -109.082031 -123.480469 -78.863281 -123.480469 -41.582031 C -123.480469 -4.304688 -93.257812 25.917969 -55.980469 25.917969 C -18.699219 25.917969 11.519531 -4.304688 11.519531 -41.582031 C 11.519531 -78.863281 -18.699219 -109.082031 -55.980469 -109.082031 Z M -55.980469 -109.082031 " clip-rule="nonzero"/></clipPath><clipPath id="358c569e78"><path d="M 0 0 L 16.503906 0 L 16.503906 9 L 0 9 Z M 0 0 " clip-rule="nonzero"/></clipPath><clipPath id="b38baca230"><path d="M 99.605469 8.804688 L 350.105469 8.804688 L 350.105469 267 L 99.605469 267 Z M 99.605469 8.804688 " clip-rule="nonzero"/></clipPath><clipPath id="88f04b9f17"><path d="M 142 104 L 299 104 L 299 441.554688 L 142 441.554688 Z M 142 104 " clip-rule="nonzero"/></clipPath><clipPath id="821c17b5c3"><path d="M 99.605469 8.804688 L 350.105469 8.804688 L 350.105469 260 L 99.605469 260 Z M 99.605469 8.804688 " clip-rule="nonzero"/></clipPath></defs><g clip-path="url(#3d6574bf80)"><g clip-path="url(#69876a6931)"><path fill="#e1e1e1" d="M -123.480469 -109.082031 L 11.519531 -109.082031 L 11.519531 25.917969 L -123.480469 25.917969 Z M -123.480469 -109.082031 " fill-opacity="1" fill-rule="nonzero"/></g></g><path fill="#c700ff" d="M -2.902344 -0.488281 L 5.882812 -0.488281 L 5.882812 8.296875 L -2.902344 8.296875 Z M -2.902344 -0.488281 " fill-opacity="1" fill-rule="nonzero"/><g clip-path="url(#358c569e78)"><path fill="#000000" d="M 10.5625 -89.878906 L 16.363281 -89.878906 L 16.363281 -95.667969 L 10.5625 -95.667969 L 10.5625 -101.457031 L 4.765625 -101.457031 L 4.765625 -107.246094 L -1.035156 -107.246094 L -1.035156 -136.195312 L -30.027344 -136.195312 L -30.027344 -159.355469 L -41.625 -159.355469 L -41.625 -153.566406 L -47.425781 -153.566406 L -47.425781 -147.773438 L -53.222656 -147.773438 L -53.222656 -141.984375 L -59.023438 -141.984375 L -59.023438 -147.773438 L -64.824219 -147.773438 L -64.824219 -153.566406 L -70.621094 -153.566406 L -70.621094 -159.355469 L -82.214844 -159.355469 L -82.214844 -147.773438 L -88.011719 -147.773438 L -88.011719 -141.984375 L -93.8125 -141.984375 L -93.8125 -147.773438 L -99.609375 -147.773438 L -99.609375 -153.566406 L -117.007812 -153.566406 L -117.007812 -130.40625 L -146 -130.40625 L -146 -124.617188 L -140.203125 -124.617188 L -140.203125 -101.457031 L -146 -101.457031 L -146 -95.667969 L -151.800781 -95.667969 L -151.800781 -89.878906 L -157.597656 -89.878906 L -157.597656 -84.089844 L -163.398438 -84.089844 L -163.398438 -78.296875 L -146 -78.296875 L -146 -49.355469 L -122.804688 -49.355469 L -122.804688 -37.773438 L -128.605469 -37.773438 L -128.605469 -14.617188 L -134.402344 -14.617188 L -134.402344 8.542969 L -128.605469 8.542969 L -128.605469 2.753906 L -117.007812 2.753906 L -117.007812 -3.035156 L -111.207031 -3.035156 L -111.207031 -8.828125 L -105.410156 -8.828125 L -105.410156 -14.617188 L -99.609375 -14.617188 L -99.609375 -20.40625 L -93.8125 -20.40625 L -93.8125 -26.195312 L -82.214844 -26.195312 L -82.214844 -20.40625 L -76.414062 -20.40625 L -76.414062 -8.828125 L -70.621094 -8.828125 L -70.621094 -14.617188 L -64.824219 -14.617188 L -64.824219 -20.40625 L -59.023438 -20.40625 L -59.023438 -26.195312 L -41.625 -26.195312 L -41.625 -20.40625 L -35.828125 -20.40625 L -35.828125 -14.617188 L -24.230469 -14.617188 L -24.230469 -49.355469 L 10.5625 -49.355469 L 10.5625 -55.144531 L 4.765625 -55.144531 L 4.765625 -60.933594 L -1.035156 -60.933594 L -1.035156 -66.722656 L -6.832031 -66.722656 L -6.832031 -84.089844 L -1.035156 -84.089844 L -1.035156 -89.878906 Z M 10.5625 -89.878906 " fill-opacity="1" fill-rule="evenodd"/></g><g clip-path="url(#b38baca230)"><path fill="#ffe014" d="M 341.46875 190.558594 L 341.46875 181.90625 L 332.832031 181.90625 L 332.832031 173.25 L 315.554688 173.25 L 315.554688 164.59375 L 324.191406 164.59375 L 324.191406 138.628906 L 315.554688 138.628906 L 315.554688 129.976562 L 298.277344 129.976562 L 298.277344 104.011719 L 289.640625 104.011719 L 289.640625 95.355469 L 306.917969 95.355469 L 306.917969 86.699219 L 315.554688 86.699219 L 315.554688 78.046875 L 324.191406 78.046875 L 324.191406 69.390625 L 315.554688 69.390625 L 315.554688 60.738281 L 306.917969 60.738281 L 306.917969 52.082031 L 289.640625 52.082031 L 289.640625 43.425781 L 298.277344 43.425781 L 298.277344 17.460938 L 289.640625 17.460938 L 289.640625 8.808594 L 263.726562 8.808594 L 263.726562 17.460938 L 255.089844 17.460938 L 255.089844 26.117188 L 246.453125 26.117188 L 246.453125 43.425781 L 237.8125 43.425781 L 237.8125 26.117188 L 229.175781 26.117188 L 229.175781 17.460938 L 220.539062 17.460938 L 220.539062 8.808594 L 194.625 8.808594 L 194.625 17.460938 L 185.984375 17.460938 L 185.984375 43.425781 L 194.625 43.425781 L 194.625 52.082031 L 177.347656 52.082031 L 177.347656 60.738281 L 168.710938 60.738281 L 168.710938 69.390625 L 160.070312 69.390625 L 160.070312 78.046875 L 168.710938 78.046875 L 168.710938 86.699219 L 177.347656 86.699219 L 177.347656 95.355469 L 168.710938 95.355469 L 168.710938 86.699219 L 160.070312 86.699219 L 160.070312 78.046875 L 134.160156 78.046875 L 134.160156 86.699219 L 125.519531 86.699219 L 125.519531 112.664062 L 134.160156 112.664062 L 134.160156 121.320312 L 116.882812 121.320312 L 116.882812 129.976562 L 108.246094 129.976562 L 108.246094 138.628906 L 99.605469 138.628906 L 99.605469 147.285156 L 108.246094 147.285156 L 108.246094 155.941406 L 116.882812 155.941406 L 116.882812 164.59375 L 134.160156 164.59375 L 134.160156 173.25 L 125.519531 173.25 L 125.519531 199.214844 L 134.160156 199.214844 L 134.160156 207.871094 L 160.070312 207.871094 L 160.070312 199.214844 L 185.984375 199.214844 L 185.984375 207.871094 L 211.898438 207.871094 L 211.898438 216.523438 L 229.175781 216.523438 L 229.175781 225.179688 L 220.539062 225.179688 L 220.539062 233.835938 L 213.609375 250.683594 L 229.175781 259.800781 L 237.8125 259.800781 L 242.867188 262.394531 L 246.453125 259.800781 L 263.726562 259.800781 L 263.726562 251.144531 L 272.363281 251.144531 L 272.363281 242.488281 L 281.003906 242.488281 L 281.003906 251.144531 L 286.425781 265.601562 L 293.480469 266.261719 L 298.277344 259.800781 L 315.554688 259.800781 L 315.554688 251.144531 L 324.191406 251.144531 L 324.191406 225.179688 L 315.554688 225.179688 L 315.554688 216.523438 L 332.832031 216.523438 L 332.832031 207.871094 L 341.46875 207.871094 L 341.46875 199.214844 L 350.105469 199.214844 L 350.105469 190.558594 Z M 281.003906 147.285156 L 272.363281 147.285156 L 272.363281 138.628906 L 281.003906 138.628906 Z M 220.539062 164.59375 L 229.175781 164.59375 L 229.175781 173.25 L 220.539062 173.25 Z M 220.539062 164.59375 " fill-opacity="1" fill-rule="nonzero"/></g><g clip-path="url(#88f04b9f17)"><path fill="#b4cf00" d="M 246.453125 104.011719 L 246.453125 129.976562 L 237.8125 129.976562 L 237.8125 104.011719 Z M 185.984375 207.871094 L 185.984375 225.179688 L 177.347656 225.179688 L 177.347656 242.488281 L 185.984375 242.488281 L 185.984375 233.835938 L 194.625 233.835938 L 194.625 242.488281 L 185.984375 242.488281 L 185.984375 259.800781 L 177.347656 259.800781 L 177.347656 242.488281 L 168.710938 242.488281 L 168.710938 233.835938 L 160.070312 233.835938 L 160.070312 225.179688 L 151.433594 225.179688 L 151.433594 216.523438 L 142.796875 216.523438 L 142.796875 242.488281 L 151.433594 242.488281 L 151.433594 259.800781 L 160.070312 259.800781 L 160.070312 277.109375 L 168.710938 277.109375 L 168.710938 285.765625 L 177.347656 285.765625 L 177.347656 303.074219 L 185.984375 303.074219 L 185.984375 311.726562 L 194.625 311.726562 L 194.625 320.382812 L 203.261719 320.382812 L 203.261719 346.347656 L 211.898438 346.347656 L 211.898438 311.726562 L 203.261719 311.726562 L 203.261719 277.109375 L 194.625 277.109375 L 194.625 251.144531 L 203.261719 251.144531 L 203.261719 268.453125 L 211.898438 268.453125 L 211.898438 294.417969 L 220.539062 294.417969 L 220.539062 303.074219 L 229.175781 303.074219 L 229.175781 311.726562 L 237.8125 311.726562 L 237.8125 406.933594 L 246.453125 406.933594 L 246.453125 355.003906 L 255.089844 355.003906 L 255.089844 346.347656 L 263.726562 346.347656 L 263.726562 337.691406 L 272.363281 337.691406 L 272.363281 311.726562 L 281.003906 311.726562 L 281.003906 294.417969 L 289.640625 294.417969 L 289.640625 277.109375 L 298.277344 277.109375 L 298.277344 259.800781 L 289.640625 259.800781 L 289.640625 251.144531 L 281.003906 251.144531 L 281.003906 259.800781 L 272.363281 259.800781 L 272.363281 277.109375 L 263.726562 277.109375 L 263.726562 294.417969 L 255.089844 294.417969 L 255.089844 311.726562 L 246.453125 311.726562 L 246.453125 259.800781 L 237.8125 259.800781 L 237.8125 268.453125 L 229.175781 268.453125 L 229.175781 251.144531 L 220.539062 251.144531 L 220.539062 233.835938 L 211.898438 233.835938 L 211.898438 216.523438 L 203.261719 216.523438 L 203.261719 207.871094 Z M 229.175781 415.585938 L 229.175781 441.550781 L 237.8125 441.550781 L 237.8125 406.933594 L 229.175781 406.933594 Z M 229.175781 389.621094 L 229.175781 380.96875 L 220.539062 380.96875 L 220.539062 406.933594 L 229.175781 406.933594 Z M 220.539062 363.65625 L 220.539062 346.347656 L 211.898438 346.347656 L 211.898438 380.96875 L 220.539062 380.96875 Z M 168.710938 190.558594 L 168.710938 225.179688 L 177.347656 225.179688 L 177.347656 190.558594 Z M 168.710938 190.558594 " fill-opacity="1" fill-rule="nonzero"/></g><path fill="#097738" d="M 194.625 303.074219 L 203.261719 303.074219 L 203.261719 320.382812 L 194.625 320.382812 L 194.625 311.726562 L 185.984375 311.726562 L 185.984375 303.074219 L 177.347656 303.074219 L 177.347656 285.765625 L 168.710938 285.765625 L 168.710938 277.109375 L 160.070312 277.109375 L 160.070312 259.800781 L 151.433594 259.800781 L 151.433594 242.488281 L 142.796875 242.488281 L 142.796875 216.523438 L 151.433594 216.523438 L 151.433594 233.835938 L 160.070312 233.835938 L 160.070312 251.144531 L 168.710938 251.144531 L 168.710938 268.453125 L 177.347656 268.453125 L 177.347656 277.109375 L 185.984375 277.109375 L 185.984375 294.417969 L 194.625 294.417969 Z M 177.347656 199.214844 L 177.347656 190.558594 L 168.710938 190.558594 L 168.710938 207.871094 L 177.347656 207.871094 Z M 229.175781 415.585938 L 237.8125 415.585938 L 237.8125 406.933594 L 229.175781 406.933594 Z M 229.175781 251.144531 L 220.539062 251.144531 L 220.539062 259.800781 L 229.175781 259.800781 Z M 246.453125 112.664062 L 246.453125 104.011719 L 237.8125 104.011719 L 237.8125 121.320312 L 246.453125 121.320312 Z M 185.984375 259.800781 L 185.984375 268.453125 L 194.625 268.453125 L 194.625 251.144531 L 185.984375 251.144531 Z M 246.453125 259.800781 L 237.8125 259.800781 L 237.8125 268.453125 L 246.453125 268.453125 Z M 229.175781 277.109375 L 229.175781 285.765625 L 220.539062 285.765625 L 220.539062 268.453125 L 211.898438 268.453125 L 211.898438 294.417969 L 220.539062 294.417969 L 220.539062 303.074219 L 229.175781 303.074219 L 229.175781 311.726562 L 237.8125 311.726562 L 237.8125 268.453125 L 229.175781 268.453125 Z M 194.625 216.523438 L 203.261719 216.523438 L 203.261719 207.871094 L 185.984375 207.871094 L 185.984375 233.835938 L 194.625 233.835938 Z M 289.640625 259.800781 L 289.640625 251.144531 L 281.003906 251.144531 L 281.003906 277.109375 L 272.363281 277.109375 L 272.363281 294.417969 L 263.726562 294.417969 L 263.726562 311.726562 L 246.453125 311.726562 L 246.453125 355.003906 L 255.089844 355.003906 L 255.089844 346.347656 L 263.726562 346.347656 L 263.726562 337.691406 L 272.363281 337.691406 L 272.363281 311.726562 L 281.003906 311.726562 L 281.003906 294.417969 L 289.640625 294.417969 L 289.640625 277.109375 L 298.277344 277.109375 L 298.277344 259.800781 Z M 211.898438 251.144531 L 203.261719 251.144531 L 203.261719 268.453125 L 211.898438 268.453125 Z M 203.261719 233.835938 L 194.625 233.835938 L 194.625 251.144531 L 203.261719 251.144531 Z M 203.261719 233.835938 " fill-opacity="0.5" fill-rule="nonzero"/><g clip-path="url(#821c17b5c3)"><path fill="#ff6d00" d="M 350.105469 190.558594 L 350.105469 199.214844 L 341.46875 199.214844 L 341.46875 190.558594 Z M 332.832031 207.871094 L 341.46875 207.871094 L 341.46875 199.214844 L 332.832031 199.214844 Z M 341.46875 190.558594 L 341.46875 181.90625 L 332.832031 181.90625 L 332.832031 190.558594 Z M 315.554688 242.488281 L 315.554688 251.144531 L 324.191406 251.144531 L 324.191406 225.179688 L 315.554688 225.179688 Z M 315.554688 207.871094 L 306.917969 207.871094 L 306.917969 225.179688 L 315.554688 225.179688 L 315.554688 216.523438 L 332.832031 216.523438 L 332.832031 207.871094 Z M 315.554688 155.941406 L 315.554688 164.59375 L 324.191406 164.59375 L 324.191406 138.628906 L 315.554688 138.628906 Z M 324.191406 69.390625 L 315.554688 69.390625 L 315.554688 78.046875 L 324.191406 78.046875 Z M 306.917969 173.25 L 306.917969 181.90625 L 332.832031 181.90625 L 332.832031 173.25 L 315.554688 173.25 L 315.554688 164.59375 L 306.917969 164.59375 Z M 315.554688 78.046875 L 306.917969 78.046875 L 306.917969 86.699219 L 315.554688 86.699219 Z M 306.917969 60.738281 L 306.917969 69.390625 L 315.554688 69.390625 L 315.554688 60.738281 Z M 298.277344 251.144531 L 289.640625 251.144531 L 289.640625 259.800781 L 315.554688 259.800781 L 315.554688 251.144531 Z M 298.277344 52.082031 L 289.640625 52.082031 L 289.640625 43.425781 L 281.003906 43.425781 L 281.003906 52.082031 L 272.363281 52.082031 L 272.363281 60.738281 L 306.917969 60.738281 L 306.917969 52.082031 Z M 298.277344 95.355469 L 306.917969 95.355469 L 306.917969 86.699219 L 272.363281 86.699219 L 272.363281 95.355469 L 281.003906 95.355469 L 281.003906 104.011719 L 289.640625 104.011719 L 289.640625 95.355469 Z M 298.277344 34.773438 L 298.277344 17.460938 L 289.640625 17.460938 L 289.640625 43.425781 L 298.277344 43.425781 Z M 281.003906 242.488281 L 281.003906 251.144531 L 289.640625 251.144531 L 289.640625 242.488281 Z M 281.003906 8.808594 L 263.726562 8.808594 L 263.726562 17.460938 L 289.640625 17.460938 L 289.640625 8.808594 Z M 281.003906 225.179688 L 281.003906 207.871094 L 272.363281 207.871094 L 272.363281 242.488281 L 281.003906 242.488281 Z M 272.363281 155.941406 L 272.363281 181.90625 L 281.003906 181.90625 L 281.003906 147.285156 L 272.363281 147.285156 Z M 263.726562 251.144531 L 272.363281 251.144531 L 272.363281 242.488281 L 263.726562 242.488281 Z M 263.726562 78.046875 L 263.726562 86.699219 L 272.363281 86.699219 L 272.363281 78.046875 Z M 263.726562 69.390625 L 272.363281 69.390625 L 272.363281 60.738281 L 263.726562 60.738281 Z M 263.726562 138.628906 L 263.726562 147.285156 L 272.363281 147.285156 L 272.363281 138.628906 L 281.003906 138.628906 L 281.003906 147.285156 L 289.640625 147.285156 L 289.640625 138.628906 L 315.554688 138.628906 L 315.554688 129.976562 L 298.277344 129.976562 L 298.277344 104.011719 L 289.640625 104.011719 L 289.640625 129.976562 L 255.089844 129.976562 L 255.089844 138.628906 Z M 255.089844 26.117188 L 263.726562 26.117188 L 263.726562 17.460938 L 255.089844 17.460938 Z M 246.453125 251.144531 L 229.175781 251.144531 L 229.175781 259.800781 L 263.726562 259.800781 L 263.726562 251.144531 Z M 255.089844 199.214844 L 246.453125 199.214844 L 246.453125 207.871094 L 255.089844 207.871094 Z M 246.453125 190.558594 L 255.089844 190.558594 L 255.089844 181.90625 L 246.453125 181.90625 Z M 246.453125 147.285156 L 255.089844 147.285156 L 255.089844 138.628906 L 246.453125 138.628906 Z M 255.089844 121.320312 L 255.089844 104.011719 L 246.453125 104.011719 L 246.453125 129.976562 L 255.089844 129.976562 Z M 246.453125 34.773438 L 246.453125 43.425781 L 255.089844 43.425781 L 255.089844 26.117188 L 246.453125 26.117188 Z M 237.8125 173.25 L 237.8125 181.90625 L 246.453125 181.90625 L 246.453125 173.25 Z M 237.8125 155.941406 L 246.453125 155.941406 L 246.453125 147.285156 L 237.8125 147.285156 Z M 246.453125 138.628906 L 246.453125 129.976562 L 237.8125 129.976562 L 237.8125 138.628906 Z M 237.8125 95.355469 L 237.8125 104.011719 L 246.453125 104.011719 L 246.453125 95.355469 Z M 237.8125 52.082031 L 246.453125 52.082031 L 246.453125 43.425781 L 237.8125 43.425781 Z M 237.8125 216.523438 L 246.453125 216.523438 L 246.453125 207.871094 L 220.539062 207.871094 L 220.539062 216.523438 L 229.175781 216.523438 L 229.175781 225.179688 L 237.8125 225.179688 Z M 237.8125 26.117188 L 229.175781 26.117188 L 229.175781 43.425781 L 237.8125 43.425781 Z M 229.175781 233.835938 L 229.175781 225.179688 L 220.539062 225.179688 L 220.539062 251.144531 L 229.175781 251.144531 Z M 220.539062 190.558594 L 220.539062 199.214844 L 229.175781 199.214844 L 229.175781 173.25 L 220.539062 173.25 Z M 220.539062 155.941406 L 203.261719 155.941406 L 203.261719 164.59375 L 211.898438 164.59375 L 211.898438 173.25 L 220.539062 173.25 L 220.539062 164.59375 L 237.8125 164.59375 L 237.8125 155.941406 Z M 220.539062 104.011719 L 220.539062 112.664062 L 229.175781 112.664062 L 229.175781 86.699219 L 220.539062 86.699219 Z M 220.539062 17.460938 L 220.539062 26.117188 L 229.175781 26.117188 L 229.175781 17.460938 Z M 194.625 43.425781 L 194.625 52.082031 L 203.261719 52.082031 L 203.261719 43.425781 Z M 211.898438 199.214844 L 185.984375 199.214844 L 185.984375 207.871094 L 220.539062 207.871094 L 220.539062 199.214844 Z M 211.898438 121.320312 L 203.261719 121.320312 L 203.261719 129.976562 L 237.8125 129.976562 L 237.8125 121.320312 L 220.539062 121.320312 L 220.539062 112.664062 L 211.898438 112.664062 Z M 220.539062 69.390625 L 220.539062 60.738281 L 211.898438 60.738281 L 211.898438 69.390625 Z M 211.898438 8.808594 L 194.625 8.808594 L 194.625 17.460938 L 220.539062 17.460938 L 220.539062 8.808594 Z M 194.625 147.285156 L 194.625 155.941406 L 203.261719 155.941406 L 203.261719 147.285156 Z M 194.625 138.628906 L 203.261719 138.628906 L 203.261719 129.976562 L 194.625 129.976562 Z M 203.261719 86.699219 L 220.539062 86.699219 L 220.539062 78.046875 L 185.984375 78.046875 L 185.984375 86.699219 Z M 194.625 60.738281 L 211.898438 60.738281 L 211.898438 52.082031 L 177.347656 52.082031 L 177.347656 60.738281 Z M 185.984375 26.117188 L 185.984375 43.425781 L 194.625 43.425781 L 194.625 17.460938 L 185.984375 17.460938 Z M 177.347656 190.558594 L 177.347656 199.214844 L 185.984375 199.214844 L 185.984375 190.558594 Z M 185.984375 95.355469 L 185.984375 86.699219 L 177.347656 86.699219 L 177.347656 95.355469 Z M 177.347656 173.25 L 177.347656 155.941406 L 168.710938 155.941406 L 168.710938 190.558594 L 177.347656 190.558594 Z M 168.710938 104.011719 L 168.710938 129.976562 L 177.347656 129.976562 L 177.347656 95.355469 L 168.710938 95.355469 Z M 177.347656 86.699219 L 177.347656 78.046875 L 168.710938 78.046875 L 168.710938 86.699219 Z M 177.347656 60.738281 L 168.710938 60.738281 L 168.710938 69.390625 L 177.347656 69.390625 Z M 160.070312 199.214844 L 168.710938 199.214844 L 168.710938 190.558594 L 160.070312 190.558594 Z M 160.070312 86.699219 L 160.070312 95.355469 L 168.710938 95.355469 L 168.710938 86.699219 Z M 168.710938 69.390625 L 160.070312 69.390625 L 160.070312 78.046875 L 168.710938 78.046875 Z M 142.796875 199.214844 L 134.160156 199.214844 L 134.160156 207.871094 L 160.070312 207.871094 L 160.070312 199.214844 Z M 151.433594 86.699219 L 160.070312 86.699219 L 160.070312 78.046875 L 134.160156 78.046875 L 134.160156 86.699219 Z M 142.796875 164.59375 L 142.796875 155.941406 L 116.882812 155.941406 L 116.882812 164.59375 L 134.160156 164.59375 L 134.160156 173.25 L 142.796875 173.25 Z M 134.160156 181.90625 L 134.160156 173.25 L 125.519531 173.25 L 125.519531 199.214844 L 134.160156 199.214844 Z M 134.160156 129.976562 L 142.796875 129.976562 L 142.796875 112.664062 L 134.160156 112.664062 L 134.160156 121.320312 L 116.882812 121.320312 L 116.882812 129.976562 Z M 134.160156 95.355469 L 134.160156 86.699219 L 125.519531 86.699219 L 125.519531 112.664062 L 134.160156 112.664062 Z M 108.246094 147.285156 L 108.246094 155.941406 L 116.882812 155.941406 L 116.882812 147.285156 Z M 116.882812 129.976562 L 108.246094 129.976562 L 108.246094 138.628906 L 116.882812 138.628906 Z M 99.605469 138.628906 L 99.605469 147.285156 L 108.246094 147.285156 L 108.246094 138.628906 Z M 99.605469 138.628906 " fill-opacity="0.5" fill-rule="nonzero"/></g><path fill="#ffe014" d="M 255.089844 294.417969 L 263.726562 294.417969 L 263.726562 303.074219 L 255.089844 303.074219 Z M 263.726562 285.765625 L 263.726562 294.417969 L 272.363281 294.417969 L 272.363281 277.109375 L 263.726562 277.109375 Z M 272.363281 268.453125 L 272.363281 277.109375 L 281.003906 277.109375 L 281.003906 259.800781 L 272.363281 259.800781 Z M 211.898438 242.488281 L 220.539062 242.488281 L 220.539062 233.835938 L 211.898438 233.835938 Z M 211.898438 216.523438 L 203.261719 216.523438 L 203.261719 233.835938 L 211.898438 233.835938 Z M 194.625 285.765625 L 203.261719 285.765625 L 203.261719 277.109375 L 194.625 277.109375 Z M 185.984375 268.453125 L 185.984375 277.109375 L 194.625 277.109375 L 194.625 268.453125 Z M 177.347656 259.800781 L 177.347656 268.453125 L 185.984375 268.453125 L 185.984375 259.800781 Z M 177.347656 242.488281 L 168.710938 242.488281 L 168.710938 259.800781 L 177.347656 259.800781 Z M 160.070312 233.835938 L 160.070312 242.488281 L 168.710938 242.488281 L 168.710938 233.835938 Z M 151.433594 225.179688 L 151.433594 233.835938 L 160.070312 233.835938 L 160.070312 225.179688 Z M 151.433594 225.179688 " fill-opacity="0.7" fill-rule="nonzero"/><path fill="#fffbef" d="M 332.832031 190.558594 L 332.832031 199.214844 L 341.46875 199.214844 L 341.46875 190.558594 Z M 324.191406 181.90625 L 324.191406 190.558594 L 332.832031 190.558594 L 332.832031 181.90625 Z M 306.917969 233.835938 L 306.917969 242.488281 L 315.554688 242.488281 L 315.554688 225.179688 L 306.917969 225.179688 Z M 306.917969 147.285156 L 306.917969 155.941406 L 315.554688 155.941406 L 315.554688 138.628906 L 306.917969 138.628906 Z M 306.917969 78.046875 L 315.554688 78.046875 L 315.554688 69.390625 L 306.917969 69.390625 Z M 298.277344 60.738281 L 298.277344 69.390625 L 306.917969 69.390625 L 306.917969 60.738281 Z M 281.003906 112.664062 L 289.640625 112.664062 L 289.640625 104.011719 L 281.003906 104.011719 Z M 272.363281 233.835938 L 263.726562 233.835938 L 263.726562 242.488281 L 272.363281 242.488281 Z M 272.363281 17.460938 L 263.726562 17.460938 L 263.726562 26.117188 L 272.363281 26.117188 Z M 263.726562 242.488281 L 255.089844 242.488281 L 255.089844 251.144531 L 263.726562 251.144531 Z M 263.726562 26.117188 L 255.089844 26.117188 L 255.089844 34.773438 L 263.726562 34.773438 Z M 237.8125 190.558594 L 246.453125 190.558594 L 246.453125 181.90625 L 237.8125 181.90625 Z M 237.8125 147.285156 L 246.453125 147.285156 L 246.453125 138.628906 L 237.8125 138.628906 Z M 229.175781 233.835938 L 237.8125 233.835938 L 237.8125 225.179688 L 229.175781 225.179688 Z M 229.175781 129.976562 L 229.175781 138.628906 L 237.8125 138.628906 L 237.8125 129.976562 Z M 203.261719 26.117188 L 203.261719 17.460938 L 194.625 17.460938 L 194.625 34.773438 L 203.261719 34.773438 Z M 194.625 199.214844 L 194.625 190.558594 L 185.984375 190.558594 L 185.984375 199.214844 Z M 194.625 86.699219 L 185.984375 86.699219 L 185.984375 95.355469 L 194.625 95.355469 Z M 177.347656 181.90625 L 177.347656 190.558594 L 185.984375 190.558594 L 185.984375 181.90625 Z M 177.347656 104.011719 L 185.984375 104.011719 L 185.984375 95.355469 L 177.347656 95.355469 Z M 185.984375 60.738281 L 177.347656 60.738281 L 177.347656 69.390625 L 185.984375 69.390625 Z M 177.347656 69.390625 L 168.710938 69.390625 L 168.710938 78.046875 L 177.347656 78.046875 Z M 134.160156 181.90625 L 134.160156 190.558594 L 142.796875 190.558594 L 142.796875 173.25 L 134.160156 173.25 Z M 134.160156 95.355469 L 134.160156 104.011719 L 142.796875 104.011719 L 142.796875 86.699219 L 134.160156 86.699219 Z M 116.882812 138.628906 L 125.519531 138.628906 L 125.519531 129.976562 L 116.882812 129.976562 Z M 108.246094 147.285156 L 116.882812 147.285156 L 116.882812 138.628906 L 108.246094 138.628906 Z M 108.246094 147.285156 " fill-opacity="0.8" fill-rule="nonzero"/><path fill="#b4cf00" d="M 281.003906 259.800781 L 281.003906 277.109375 L 289.640625 277.109375 L 289.640625 259.800781 Z M 272.363281 285.765625 L 272.363281 294.417969 L 281.003906 294.417969 L 281.003906 277.109375 L 272.363281 277.109375 Z M 263.726562 303.074219 L 263.726562 311.726562 L 272.363281 311.726562 L 272.363281 294.417969 L 263.726562 294.417969 Z M 255.089844 320.382812 L 255.089844 337.691406 L 263.726562 337.691406 L 263.726562 311.726562 L 255.089844 311.726562 Z M 177.347656 268.453125 L 177.347656 277.109375 L 168.710938 277.109375 L 168.710938 268.453125 Z M 168.710938 251.144531 L 160.070312 251.144531 L 160.070312 268.453125 L 168.710938 268.453125 Z M 185.984375 294.417969 L 185.984375 303.074219 L 194.625 303.074219 L 194.625 294.417969 Z M 160.070312 233.835938 L 151.433594 233.835938 L 151.433594 251.144531 L 160.070312 251.144531 Z M 185.984375 277.109375 L 177.347656 277.109375 L 177.347656 294.417969 L 185.984375 294.417969 Z M 194.625 311.726562 L 203.261719 311.726562 L 203.261719 303.074219 L 194.625 303.074219 Z M 220.539062 294.417969 L 229.175781 294.417969 L 229.175781 285.765625 L 220.539062 285.765625 Z M 220.539062 268.453125 L 229.175781 268.453125 L 229.175781 259.800781 L 220.539062 259.800781 Z M 220.539062 268.453125 " fill-opacity="0.4" fill-rule="nonzero"/><path fill="#ffe014" d="M 255.089844 303.074219 L 263.726562 303.074219 L 263.726562 311.726562 L 255.089844 311.726562 Z M 272.363281 268.453125 L 281.003906 268.453125 L 281.003906 277.109375 L 272.363281 277.109375 Z M 263.726562 285.765625 L 272.363281 285.765625 L 272.363281 294.417969 L 263.726562 294.417969 Z M 194.625 294.417969 L 203.261719 294.417969 L 203.261719 285.765625 L 194.625 285.765625 Z M 185.984375 277.109375 L 185.984375 285.765625 L 194.625 285.765625 L 194.625 277.109375 Z M 177.347656 268.453125 L 177.347656 277.109375 L 185.984375 277.109375 L 185.984375 268.453125 Z M 177.347656 251.144531 L 168.710938 251.144531 L 168.710938 268.453125 L 177.347656 268.453125 Z M 160.070312 242.488281 L 160.070312 251.144531 L 168.710938 251.144531 L 168.710938 242.488281 Z M 151.433594 233.835938 L 151.433594 242.488281 L 160.070312 242.488281 L 160.070312 233.835938 Z M 211.898438 251.144531 L 220.539062 251.144531 L 220.539062 242.488281 L 211.898438 242.488281 Z M 220.539062 268.453125 L 229.175781 268.453125 L 229.175781 259.800781 L 220.539062 259.800781 Z M 203.261719 242.488281 L 211.898438 242.488281 L 211.898438 233.835938 L 203.261719 233.835938 Z M 194.625 225.179688 L 203.261719 225.179688 L 203.261719 216.523438 L 194.625 216.523438 Z M 194.625 225.179688 " fill-opacity="0.3" fill-rule="nonzero"/><path fill="#ff6d00" d="M 306.917969 207.871094 L 281.003906 207.871094 L 281.003906 181.90625 L 306.917969 181.90625 Z M 168.710938 129.976562 L 142.796875 129.976562 L 142.796875 155.941406 L 168.710938 155.941406 Z M 255.089844 60.738281 L 229.175781 60.738281 L 229.175781 86.699219 L 255.089844 86.699219 Z M 255.089844 60.738281 " fill-opacity="0.5" fill-rule="nonzero"/><path fill="#ff6d00" d="M 315.554688 216.523438 L 306.917969 216.523438 L 306.917969 207.871094 L 315.554688 207.871094 Z M 263.726562 207.871094 L 255.089844 207.871094 L 255.089844 199.214844 L 263.726562 199.214844 Z M 306.917969 225.179688 L 281.003906 225.179688 L 281.003906 216.523438 L 306.917969 216.523438 Z M 281.003906 216.523438 L 263.726562 216.523438 L 263.726562 207.871094 L 281.003906 207.871094 Z M 281.003906 216.523438 " fill-opacity="0.3" fill-rule="nonzero"/><path fill="#ff6d00" d="M 134.160156 155.941406 L 142.796875 155.941406 L 142.796875 164.59375 L 134.160156 164.59375 Z M 185.984375 147.285156 L 194.625 147.285156 L 194.625 155.941406 L 185.984375 155.941406 Z M 211.898438 190.558594 L 220.539062 190.558594 L 220.539062 199.214844 L 211.898438 199.214844 Z M 211.898438 173.25 L 220.539062 173.25 L 220.539062 181.90625 L 211.898438 181.90625 Z M 203.261719 164.59375 L 211.898438 164.59375 L 211.898438 173.25 L 203.261719 173.25 Z M 151.433594 190.558594 L 160.070312 190.558594 L 160.070312 199.214844 L 151.433594 199.214844 Z M 160.070312 181.90625 L 168.710938 181.90625 L 168.710938 190.558594 L 160.070312 190.558594 Z M 116.882812 147.285156 L 125.519531 147.285156 L 125.519531 155.941406 L 116.882812 155.941406 Z M 142.796875 112.664062 L 151.433594 112.664062 L 151.433594 121.320312 L 142.796875 121.320312 Z M 160.070312 112.664062 L 168.710938 112.664062 L 168.710938 121.320312 L 160.070312 121.320312 Z M 185.984375 129.976562 L 194.625 129.976562 L 194.625 138.628906 L 185.984375 138.628906 Z M 194.625 121.320312 L 203.261719 121.320312 L 203.261719 129.976562 L 194.625 129.976562 Z M 203.261719 112.664062 L 211.898438 112.664062 L 211.898438 121.320312 L 203.261719 121.320312 Z M 211.898438 104.011719 L 220.539062 104.011719 L 220.539062 112.664062 L 211.898438 112.664062 Z M 211.898438 69.390625 L 220.539062 69.390625 L 220.539062 78.046875 L 211.898438 78.046875 Z M 203.261719 43.425781 L 211.898438 43.425781 L 211.898438 52.082031 L 203.261719 52.082031 Z M 211.898438 52.082031 L 220.539062 52.082031 L 220.539062 60.738281 L 211.898438 60.738281 Z M 229.175781 43.425781 L 237.8125 43.425781 L 237.8125 52.082031 L 229.175781 52.082031 Z M 246.453125 43.425781 L 255.089844 43.425781 L 255.089844 52.082031 L 246.453125 52.082031 Z M 255.089844 52.082031 L 263.726562 52.082031 L 263.726562 60.738281 L 255.089844 60.738281 Z M 272.363281 43.425781 L 281.003906 43.425781 L 281.003906 52.082031 L 272.363281 52.082031 Z M 281.003906 34.773438 L 289.640625 34.773438 L 289.640625 43.425781 L 281.003906 43.425781 Z M 263.726562 69.390625 L 272.363281 69.390625 L 272.363281 78.046875 L 263.726562 78.046875 Z M 272.363281 78.046875 L 281.003906 78.046875 L 281.003906 86.699219 L 272.363281 86.699219 Z M 298.277344 78.046875 L 306.917969 78.046875 L 306.917969 86.699219 L 298.277344 86.699219 Z M 272.363281 60.738281 L 281.003906 60.738281 L 281.003906 69.390625 L 272.363281 69.390625 Z M 211.898438 86.699219 L 220.539062 86.699219 L 220.539062 95.355469 L 211.898438 95.355469 Z M 160.070312 95.355469 L 168.710938 95.355469 L 168.710938 104.011719 L 160.070312 104.011719 Z M 151.433594 86.699219 L 160.070312 86.699219 L 160.070312 95.355469 L 151.433594 95.355469 Z M 177.347656 121.320312 L 185.984375 121.320312 L 185.984375 129.976562 L 177.347656 129.976562 Z M 229.175781 95.355469 L 237.8125 95.355469 L 237.8125 104.011719 L 229.175781 104.011719 Z M 246.453125 95.355469 L 255.089844 95.355469 L 255.089844 104.011719 L 246.453125 104.011719 Z M 255.089844 86.699219 L 272.363281 86.699219 L 272.363281 95.355469 L 255.089844 95.355469 Z M 272.363281 95.355469 L 281.003906 95.355469 L 281.003906 104.011719 L 272.363281 104.011719 Z M 281.003906 121.320312 L 289.640625 121.320312 L 289.640625 129.976562 L 281.003906 129.976562 Z M 255.089844 121.320312 L 263.726562 121.320312 L 263.726562 129.976562 L 255.089844 129.976562 Z M 255.089844 138.628906 L 263.726562 138.628906 L 263.726562 147.285156 L 255.089844 147.285156 Z M 237.8125 155.941406 L 246.453125 155.941406 L 246.453125 164.59375 L 237.8125 164.59375 Z M 263.726562 173.25 L 272.363281 173.25 L 272.363281 181.90625 L 263.726562 181.90625 Z M 229.175781 147.285156 L 237.8125 147.285156 L 237.8125 155.941406 L 229.175781 155.941406 Z M 194.625 138.628906 L 203.261719 138.628906 L 203.261719 147.285156 L 194.625 147.285156 Z M 203.261719 147.285156 L 211.898438 147.285156 L 211.898438 155.941406 L 203.261719 155.941406 Z M 246.453125 147.285156 L 255.089844 147.285156 L 255.089844 155.941406 L 246.453125 155.941406 Z M 255.089844 181.90625 L 263.726562 181.90625 L 263.726562 190.558594 L 255.089844 190.558594 Z M 220.539062 199.214844 L 229.175781 199.214844 L 229.175781 207.871094 L 220.539062 207.871094 Z M 306.917969 155.941406 L 315.554688 155.941406 L 315.554688 164.59375 L 306.917969 164.59375 Z M 289.640625 138.628906 L 298.277344 138.628906 L 298.277344 147.285156 L 289.640625 147.285156 Z M 281.003906 147.285156 L 289.640625 147.285156 L 289.640625 155.941406 L 281.003906 155.941406 Z M 281.003906 164.59375 L 289.640625 164.59375 L 289.640625 173.25 L 281.003906 173.25 Z M 298.277344 164.59375 L 306.917969 164.59375 L 306.917969 173.25 L 298.277344 173.25 Z M 324.191406 199.214844 L 332.832031 199.214844 L 332.832031 207.871094 L 324.191406 207.871094 Z M 281.003906 233.835938 L 289.640625 233.835938 L 289.640625 242.488281 L 281.003906 242.488281 Z M 289.640625 242.488281 L 298.277344 242.488281 L 298.277344 251.144531 L 289.640625 251.144531 Z M 229.175781 242.488281 L 237.8125 242.488281 L 237.8125 251.144531 L 229.175781 251.144531 Z M 246.453125 207.871094 L 255.089844 207.871094 L 255.089844 216.523438 L 246.453125 216.523438 Z M 246.453125 173.25 L 255.089844 173.25 L 255.089844 181.90625 L 246.453125 181.90625 Z M 142.796875 164.59375 L 168.710938 164.59375 L 168.710938 173.25 L 142.796875 173.25 Z M 168.710938 155.941406 L 185.984375 155.941406 L 185.984375 164.59375 L 168.710938 164.59375 Z M 168.710938 155.941406 " fill-opacity="0.2" fill-rule="nonzero"/><path fill="#ff6d00" d="M 229.175781 164.59375 L 237.8125 164.59375 L 237.8125 181.90625 L 229.175781 181.90625 Z M 211.898438 216.523438 L 220.539062 216.523438 L 220.539062 207.871094 L 211.898438 207.871094 Z M 255.089844 78.046875 L 255.089844 86.699219 L 263.726562 86.699219 L 263.726562 60.738281 L 255.089844 60.738281 Z M 229.175781 112.664062 L 220.539062 112.664062 L 220.539062 121.320312 L 237.8125 121.320312 L 237.8125 104.011719 L 229.175781 104.011719 Z M 142.796875 138.628906 L 142.796875 129.976562 L 134.160156 129.976562 L 134.160156 155.941406 L 142.796875 155.941406 Z M 151.433594 155.941406 L 142.796875 155.941406 L 142.796875 164.59375 L 168.710938 164.59375 L 168.710938 155.941406 Z M 185.984375 129.976562 L 168.710938 129.976562 L 168.710938 155.941406 L 185.984375 155.941406 L 185.984375 147.285156 L 194.625 147.285156 L 194.625 138.628906 L 185.984375 138.628906 Z M 151.433594 147.285156 L 160.070312 147.285156 L 160.070312 138.628906 L 151.433594 138.628906 Z M 160.070312 129.976562 L 168.710938 129.976562 L 168.710938 121.320312 L 142.796875 121.320312 L 142.796875 129.976562 Z M 289.640625 199.214844 L 298.277344 199.214844 L 298.277344 190.558594 L 289.640625 190.558594 Z M 281.003906 190.558594 L 281.003906 181.90625 L 263.726562 181.90625 L 263.726562 190.558594 L 255.089844 190.558594 L 255.089844 199.214844 L 263.726562 199.214844 L 263.726562 207.871094 L 281.003906 207.871094 Z M 289.640625 207.871094 L 281.003906 207.871094 L 281.003906 216.523438 L 306.917969 216.523438 L 306.917969 207.871094 Z M 306.917969 181.90625 L 306.917969 207.871094 L 315.554688 207.871094 L 315.554688 181.90625 Z M 298.277344 181.90625 L 306.917969 181.90625 L 306.917969 173.25 L 281.003906 173.25 L 281.003906 181.90625 Z M 246.453125 69.390625 L 237.8125 69.390625 L 237.8125 78.046875 L 246.453125 78.046875 Z M 246.453125 60.738281 L 255.089844 60.738281 L 255.089844 52.082031 L 229.175781 52.082031 L 229.175781 60.738281 Z M 255.089844 129.976562 L 246.453125 129.976562 L 246.453125 138.628906 L 255.089844 138.628906 Z M 229.175781 69.390625 L 229.175781 60.738281 L 220.539062 60.738281 L 220.539062 86.699219 L 229.175781 86.699219 Z M 255.089844 95.355469 L 255.089844 86.699219 L 229.175781 86.699219 L 229.175781 95.355469 Z M 255.089844 95.355469 " fill-opacity="1" fill-rule="nonzero"/></svg>