<svg xmlns="http://www.w3.org/2000/svg" xmlns:xlink="http://www.w3.org/1999/xlink" width="600" zoomAndPan="magnify" viewBox="0 0 450 449.999984" height="600" preserveAspectRatio="xMidYMid meet" version="1.0"><defs><clipPath id="289b39d7d8"><path d="M 0 0 L 11.519531 0 L 11.519531 25.917969 L 0 25.917969 Z M 0 0 " clip-rule="nonzero"/></clipPath><clipPath id="7842b3b718"><path d="M -55.980469 -109.082031 C -93.257812 -109.082031 -123.480469 -78.863281 -123.480469 -41.582031 C -123.480469 -4.304688 -93.257812 25.917969 -55.980469 25.917969 C -18.699219 25.917969 11.519531 -4.304688 11.519531 -41.582031 C 11.519531 -78.863281 -18.699219 -109.082031 -55.980469 -109.082031 Z M -55.980469 -109.082031 " clip-rule="nonzero"/></clipPath><clipPath id="00b715e8c7"><path d="M 0 0 L 16.503906 0 L 16.503906 9 L 0 9 Z M 0 0 " clip-rule="nonzero"/></clipPath><clipPath id="8019863e36"><path d="M 23.292969 32.824219 L 417.042969 32.824219 L 417.042969 426.574219 L 23.292969 426.574219 Z M 23.292969 32.824219 " clip-rule="nonzero"/></clipPath><clipPath id="4072e3b037"><path d="M 271.40625 405.546875 L 313.683594 405.546875 L 313.683594 426.574219 L 271.40625 426.574219 Z M 271.40625 405.546875 " clip-rule="nonzero"/></clipPath><clipPath id="6700d244fc"><path d="M 189 405.546875 L 251.378906 405.546875 L 251.378906 426.574219 L 189 426.574219 Z M 189 405.546875 " clip-rule="nonzero"/></clipPath><clipPath id="7fb57bfc3e"><path d="M 189.070312 405.546875 L 251.378906 405.546875 L 251.378906 426.574219 L 189.070312 426.574219 Z M 189.070312 405.546875 " clip-rule="nonzero"/></clipPath><clipPath id="6ced30925a"><path d="M 168 364.378906 L 190 364.378906 L 190 426.574219 L 168 426.574219 Z M 168 364.378906 " clip-rule="nonzero"/></clipPath><clipPath id="21b5b53af9"><path d="M 313 405.546875 L 334.824219 405.546875 L 334.824219 426.574219 L 313 426.574219 Z M 313 405.546875 " clip-rule="nonzero"/></clipPath></defs><g clip-path="url(#289b39d7d8)"><g clip-path="url(#7842b3b718)"><path fill="#e1e1e1" d="M -123.480469 -109.082031 L 11.519531 -109.082031 L 11.519531 25.917969 L -123.480469 25.917969 Z M -123.480469 -109.082031 " fill-opacity="1" fill-rule="nonzero"/></g></g><path fill="#c700ff" d="M -2.902344 -0.488281 L 5.882812 -0.488281 L 5.882812 8.296875 L -2.902344 8.296875 Z M -2.902344 -0.488281 " fill-opacity="1" fill-rule="nonzero"/><g clip-path="url(#00b715e8c7)"><path fill="#000000" d="M 10.5625 -89.878906 L 16.363281 -89.878906 L 16.363281 -95.667969 L 10.5625 -95.667969 L 10.5625 -101.457031 L 4.765625 -101.457031 L 4.765625 -107.246094 L -1.035156 -107.246094 L -1.035156 -136.195312 L -30.027344 -136.195312 L -30.027344 -159.355469 L -41.625 -159.355469 L -41.625 -153.566406 L -47.425781 -153.566406 L -47.425781 -147.773438 L -53.222656 -147.773438 L -53.222656 -141.984375 L -59.023438 -141.984375 L -59.023438 -147.773438 L -64.824219 -147.773438 L -64.824219 -153.566406 L -70.621094 -153.566406 L -70.621094 -159.355469 L -82.214844 -159.355469 L -82.214844 -147.773438 L -88.011719 -147.773438 L -88.011719 -141.984375 L -93.8125 -141.984375 L -93.8125 -147.773438 L -99.609375 -147.773438 L -99.609375 -153.566406 L -117.007812 -153.566406 L -117.007812 -130.40625 L -146 -130.40625 L -146 -124.617188 L -140.203125 -124.617188 L -140.203125 -101.457031 L -146 -101.457031 L -146 -95.667969 L -151.800781 -95.667969 L -151.800781 -89.878906 L -157.597656 -89.878906 L -157.597656 -84.089844 L -163.398438 -84.089844 L -163.398438 -78.296875 L -146 -78.296875 L -146 -49.355469 L -122.804688 -49.355469 L -122.804688 -37.773438 L -128.605469 -37.773438 L -128.605469 -14.617188 L -134.402344 -14.617188 L -134.402344 8.542969 L -128.605469 8.542969 L -128.605469 2.753906 L -117.007812 2.753906 L -117.007812 -3.035156 L -111.207031 -3.035156 L -111.207031 -8.828125 L -105.410156 -8.828125 L -105.410156 -14.617188 L -99.609375 -14.617188 L -99.609375 -20.40625 L -93.8125 -20.40625 L -93.8125 -26.195312 L -82.214844 -26.195312 L -82.214844 -20.40625 L -76.414062 -20.40625 L -76.414062 -8.828125 L -70.621094 -8.828125 L -70.621094 -14.617188 L -64.824219 -14.617188 L -64.824219 -20.40625 L -59.023438 -20.40625 L -59.023438 -26.195312 L -41.625 -26.195312 L -41.625 -20.40625 L -35.828125 -20.40625 L -35.828125 -14.617188 L -24.230469 -14.617188 L -24.230469 -49.355469 L 10.5625 -49.355469 L 10.5625 -55.144531 L 4.765625 -55.144531 L 4.765625 -60.933594 L -1.035156 -60.933594 L -1.035156 -66.722656 L -6.832031 -66.722656 L -6.832031 -84.089844 L -1.035156 -84.089844 L -1.035156 -89.878906 Z M 10.5625 -89.878906 " fill-opacity="1" fill-rule="evenodd"/></g><g clip-path="url(#8019863e36)"><path fill="#221516" d="M 251.25 426.585938 L 251.238281 405.855469 L 189.082031 405.867188 L 189.066406 364.40625 L 168.34375 364.414062 L 168.359375 426.574219 L 147.632812 426.585938 L 147.617188 364.40625 L 85.460938 364.414062 L 85.449219 343.667969 L 64.726562 343.683594 L 64.71875 322.96875 L 44.023438 322.976562 L 44.011719 302.25 L 23.308594 302.261719 L 23.292969 260.796875 L 44.023438 260.789062 L 44.011719 240.066406 L 23.308594 240.074219 L 23.292969 157.179688 L 44.023438 157.164062 L 44.011719 136.441406 L 106.179688 136.433594 L 106.1875 157.179688 L 147.632812 157.164062 L 147.640625 177.894531 L 209.796875 177.886719 L 209.785156 95.023438 L 230.535156 95.011719 L 230.519531 74.289062 L 209.796875 74.304688 L 209.785156 32.839844 L 313.40625 32.828125 L 313.414062 53.570312 L 354.855469 53.5625 L 354.867188 74.289062 L 375.578125 74.28125 L 375.585938 95.023438 L 396.308594 95.011719 L 396.316406 157.179688 L 417.023438 157.164062 L 417.039062 177.894531 L 396.308594 177.910156 L 396.316406 240.066406 L 417.023438 240.054688 L 417.039062 322.96875 L 396.308594 322.976562 L 396.316406 343.667969 L 354.855469 343.683594 L 354.867188 364.40625 L 313.40625 364.414062 L 313.414062 405.855469 L 271.953125 405.867188 L 271.964844 426.585938 L 251.25 426.585938 " fill-opacity="1" fill-rule="nonzero"/><path fill="#221516" d="M 396.308594 240.066406 L 417.023438 240.066406 L 417.023438 322.96875 L 396.308594 322.96875 L 396.308594 343.667969 L 354.855469 343.667969 L 354.855469 364.40625 L 313.40625 364.40625 L 313.40625 405.855469 L 271.953125 405.855469 L 271.953125 426.574219 L 251.25 426.574219 L 251.25 405.855469 L 189.082031 405.855469 L 189.082031 364.40625 L 168.34375 364.40625 L 168.34375 426.574219 L 147.632812 426.574219 L 147.632812 364.40625 L 85.460938 364.40625 L 85.460938 343.667969 L 64.726562 343.667969 L 64.726562 322.96875 L 44.023438 322.96875 L 44.023438 302.25 L 23.308594 302.25 L 23.308594 260.796875 L 44.023438 260.796875 L 44.023438 240.066406 L 23.308594 240.066406 L 23.308594 157.179688 L 44.023438 157.179688 L 44.023438 136.441406 L 106.179688 136.441406 L 106.179688 157.179688 L 147.632812 157.179688 L 147.632812 177.894531 L 209.796875 177.894531 L 209.796875 95.023438 L 230.535156 95.023438 L 230.535156 74.289062 L 209.796875 74.289062 L 209.796875 32.839844 L 313.40625 32.839844 L 313.40625 53.570312 L 354.855469 53.570312 L 354.855469 74.289062 L 375.578125 74.289062 L 375.578125 95.023438 L 396.308594 95.023438 L 396.308594 157.179688 L 417.023438 157.179688 L 417.023438 177.894531 L 396.308594 177.894531 L 396.308594 240.066406 " fill-opacity="1" fill-rule="nonzero"/></g><path fill="#c52d25" d="M 334.136719 115.75 L 334.128906 95.023438 L 292.6875 95.035156 L 292.675781 74.289062 L 230.535156 74.304688 L 230.519531 53.570312 L 313.40625 53.5625 L 313.414062 74.289062 L 354.855469 74.28125 L 354.867188 115.75 L 334.136719 115.75 " fill-opacity="1" fill-rule="nonzero"/><path fill="#c52d25" d="M 354.855469 74.289062 L 354.855469 115.742188 L 334.136719 115.742188 L 334.136719 95.023438 L 292.6875 95.023438 L 292.6875 74.289062 L 230.535156 74.289062 L 230.535156 53.570312 L 313.40625 53.570312 L 313.40625 74.289062 L 354.855469 74.289062 " fill-opacity="1" fill-rule="nonzero"/><path fill="#c1673d" d="M 64.726562 302.261719 L 64.71875 260.796875 L 106.179688 260.789062 L 106.1875 281.515625 L 85.460938 281.527344 L 85.46875 302.261719 L 64.726562 302.261719 " fill-opacity="1" fill-rule="nonzero"/><path fill="#c1673d" d="M 106.179688 260.796875 L 106.179688 281.515625 L 85.460938 281.515625 L 85.460938 302.25 L 64.726562 302.25 L 64.726562 260.796875 L 106.179688 260.796875 " fill-opacity="1" fill-rule="nonzero"/><path fill="#c1673d" d="M 126.910156 260.8125 L 126.902344 219.347656 L 106.179688 219.359375 L 106.1875 240.066406 L 85.460938 240.074219 L 85.449219 219.347656 L 64.726562 219.359375 L 64.71875 177.894531 L 85.460938 177.886719 L 85.449219 157.179688 L 106.179688 157.164062 L 106.1875 177.894531 L 126.910156 177.886719 L 126.921875 198.632812 L 168.34375 198.617188 L 168.359375 219.347656 L 189.082031 219.335938 L 189.09375 260.8125 L 126.910156 260.8125 " fill-opacity="1" fill-rule="nonzero"/><path fill="#c1673d" d="M 189.082031 260.796875 L 126.910156 260.796875 L 126.910156 219.347656 L 106.179688 219.347656 L 106.179688 240.066406 L 85.460938 240.066406 L 85.460938 219.347656 L 64.726562 219.347656 L 64.726562 177.894531 L 85.460938 177.894531 L 85.460938 157.179688 L 106.179688 157.179688 L 106.179688 177.894531 L 126.910156 177.894531 L 126.910156 198.632812 L 168.34375 198.632812 L 168.34375 219.347656 L 189.082031 219.347656 L 189.082031 260.796875 " fill-opacity="1" fill-rule="nonzero"/><path fill="#c1673d" d="M 106.179688 302.261719 L 106.164062 281.515625 L 126.910156 281.507812 L 126.921875 302.261719 L 106.179688 302.261719 " fill-opacity="1" fill-rule="nonzero"/><path fill="#c1673d" d="M 106.179688 281.515625 L 126.910156 281.515625 L 126.910156 302.25 L 106.179688 302.25 L 106.179688 281.515625 " fill-opacity="1" fill-rule="nonzero"/><path fill="#c1673d" d="M 44.023438 177.910156 L 44.011719 157.179688 L 64.726562 157.164062 L 64.738281 177.910156 L 44.023438 177.910156 " fill-opacity="1" fill-rule="nonzero"/><path fill="#c1673d" d="M 64.726562 157.179688 L 64.726562 177.894531 L 44.023438 177.894531 L 44.023438 157.179688 L 64.726562 157.179688 " fill-opacity="1" fill-rule="nonzero"/><path fill="#c1673d" d="M 334.136719 322.976562 L 334.128906 302.25 L 313.40625 302.261719 L 313.414062 322.96875 L 292.6875 322.976562 L 292.675781 302.25 L 271.953125 302.261719 L 271.945312 281.515625 L 251.25 281.527344 L 251.261719 302.25 L 147.632812 302.261719 L 147.617188 281.515625 L 189.082031 281.507812 L 189.066406 260.796875 L 209.796875 260.789062 L 209.789062 198.632812 L 230.535156 198.617188 L 230.519531 115.742188 L 251.25 115.730469 L 251.238281 95.023438 L 334.136719 95.011719 L 334.148438 115.742188 L 354.855469 115.730469 L 354.867188 157.179688 L 313.40625 157.1875 L 313.390625 136.441406 L 292.6875 136.457031 L 292.695312 198.632812 L 313.40625 198.617188 L 313.390625 177.894531 L 354.855469 177.886719 L 354.867188 198.632812 L 375.578125 198.617188 L 375.585938 260.796875 L 396.308594 260.789062 L 396.316406 302.25 L 354.855469 302.261719 L 354.867188 322.976562 L 334.136719 322.976562 " fill-opacity="1" fill-rule="nonzero"/><path fill="#c1673d" d="M 396.308594 260.796875 L 396.308594 302.25 L 354.855469 302.25 L 354.855469 322.96875 L 334.136719 322.96875 L 334.136719 302.25 L 313.40625 302.25 L 313.40625 322.96875 L 292.6875 322.96875 L 292.6875 302.25 L 271.953125 302.25 L 271.953125 281.515625 L 251.25 281.515625 L 251.25 302.25 L 147.632812 302.25 L 147.632812 281.515625 L 189.082031 281.515625 L 189.082031 260.796875 L 209.796875 260.796875 L 209.796875 198.632812 L 230.535156 198.632812 L 230.535156 115.742188 L 251.25 115.742188 L 251.25 95.023438 L 334.136719 95.023438 L 334.136719 115.742188 L 354.855469 115.742188 L 354.855469 157.179688 L 313.40625 157.179688 L 313.40625 136.441406 L 292.6875 136.441406 L 292.6875 198.632812 L 313.40625 198.632812 L 313.40625 177.894531 L 354.855469 177.894531 L 354.855469 198.632812 L 375.578125 198.632812 L 375.578125 260.796875 L 396.308594 260.796875 " fill-opacity="1" fill-rule="nonzero"/><g clip-path="url(#4072e3b037)"><path fill="#f6871b" d="M 271.953125 426.585938 L 271.945312 405.855469 L 313.40625 405.84375 L 313.414062 426.585938 L 271.953125 426.585938 " fill-opacity="1" fill-rule="nonzero"/><path fill="#f6871b" d="M 313.40625 405.855469 L 313.40625 426.574219 L 271.953125 426.574219 L 271.953125 405.855469 L 313.40625 405.855469 " fill-opacity="1" fill-rule="nonzero"/></g><g clip-path="url(#6700d244fc)"><path fill="#f6871b" d="M 189.082031 426.585938 L 189.066406 405.855469 L 251.25 405.84375 L 251.261719 426.585938 L 189.082031 426.585938 " fill-opacity="1" fill-rule="nonzero"/></g><g clip-path="url(#7fb57bfc3e)"><path fill="#f6871b" d="M 251.25 405.855469 L 251.25 426.574219 L 189.082031 426.574219 L 189.082031 405.855469 L 251.25 405.855469 " fill-opacity="1" fill-rule="nonzero"/></g><path fill="#f6871b" d="M 334.136719 177.910156 L 334.128906 157.179688 L 396.308594 157.164062 L 396.316406 177.910156 L 334.136719 177.910156 " fill-opacity="1" fill-rule="nonzero"/><path fill="#f6871b" d="M 396.308594 157.179688 L 396.308594 177.894531 L 334.136719 177.894531 L 334.136719 157.179688 L 396.308594 157.179688 " fill-opacity="1" fill-rule="nonzero"/><path fill="#88421f" d="M 106.179688 281.527344 L 106.164062 219.347656 L 126.910156 219.335938 L 126.921875 281.527344 L 106.179688 281.527344 " fill-opacity="1" fill-rule="nonzero"/><path fill="#88421f" d="M 126.910156 281.515625 L 106.179688 281.515625 L 106.179688 219.347656 L 126.910156 219.347656 L 126.910156 281.515625 " fill-opacity="1" fill-rule="nonzero"/><path fill="#88421f" d="M 126.910156 343.683594 L 126.902344 322.96875 L 147.632812 322.957031 L 147.640625 343.683594 L 126.910156 343.683594 " fill-opacity="1" fill-rule="nonzero"/><path fill="#88421f" d="M 126.910156 322.96875 L 147.632812 322.96875 L 147.632812 343.667969 L 126.910156 343.667969 L 126.910156 322.96875 " fill-opacity="1" fill-rule="nonzero"/><path fill="#88421f" d="M 64.726562 177.910156 L 64.71875 157.179688 L 85.460938 157.164062 L 85.46875 177.910156 L 64.726562 177.910156 " fill-opacity="1" fill-rule="nonzero"/><path fill="#88421f" d="M 85.460938 177.894531 L 64.726562 177.894531 L 64.726562 157.179688 L 85.460938 157.179688 L 85.460938 177.894531 " fill-opacity="1" fill-rule="nonzero"/><path fill="#88421f" d="M 44.023438 198.640625 L 44.011719 177.894531 L 64.726562 177.886719 L 64.738281 198.640625 L 44.023438 198.640625 " fill-opacity="1" fill-rule="nonzero"/><path fill="#88421f" d="M 44.023438 177.894531 L 64.726562 177.894531 L 64.726562 198.632812 L 44.023438 198.632812 L 44.023438 177.894531 " fill-opacity="1" fill-rule="nonzero"/><g clip-path="url(#6ced30925a)"><path fill="#88421f" d="M 168.34375 426.585938 L 168.335938 364.40625 L 189.082031 364.390625 L 189.09375 426.585938 L 168.34375 426.585938 " fill-opacity="1" fill-rule="nonzero"/><path fill="#88421f" d="M 168.34375 364.40625 L 189.082031 364.40625 L 189.082031 426.574219 L 168.34375 426.574219 L 168.34375 364.40625 " fill-opacity="1" fill-rule="nonzero"/></g><path fill="#88421f" d="M 44.023438 281.527344 L 44.011719 260.796875 L 64.726562 260.789062 L 64.738281 281.527344 L 44.023438 281.527344 " fill-opacity="1" fill-rule="nonzero"/><path fill="#88421f" d="M 44.023438 260.796875 L 64.726562 260.796875 L 64.726562 281.515625 L 44.023438 281.515625 L 44.023438 260.796875 " fill-opacity="1" fill-rule="nonzero"/><path fill="#88421f" d="M 189.082031 260.8125 L 189.066406 219.347656 L 168.34375 219.359375 L 168.335938 198.632812 L 209.796875 198.617188 L 209.8125 260.8125 L 189.082031 260.8125 " fill-opacity="1" fill-rule="nonzero"/><path fill="#88421f" d="M 209.796875 260.796875 L 189.082031 260.796875 L 189.082031 219.347656 L 168.34375 219.347656 L 168.34375 198.632812 L 209.796875 198.632812 L 209.796875 260.796875 " fill-opacity="1" fill-rule="nonzero"/><path fill="#88421f" d="M 209.796875 198.640625 L 209.789062 177.894531 L 230.535156 177.886719 L 230.542969 198.640625 L 209.796875 198.640625 " fill-opacity="1" fill-rule="nonzero"/><path fill="#88421f" d="M 230.535156 198.632812 L 209.796875 198.632812 L 209.796875 177.894531 L 230.535156 177.894531 L 230.535156 198.632812 " fill-opacity="1" fill-rule="nonzero"/><path fill="#88421f" d="M 168.34375 281.527344 L 168.335938 260.796875 L 189.082031 260.789062 L 189.09375 281.527344 L 168.34375 281.527344 " fill-opacity="1" fill-rule="nonzero"/><path fill="#88421f" d="M 189.082031 281.515625 L 168.34375 281.515625 L 168.34375 260.796875 L 189.082031 260.796875 L 189.082031 281.515625 " fill-opacity="1" fill-rule="nonzero"/><path fill="#88421f" d="M 126.910156 198.640625 L 126.902344 177.894531 L 147.632812 177.886719 L 147.640625 198.640625 L 126.910156 198.640625 " fill-opacity="1" fill-rule="nonzero"/><path fill="#88421f" d="M 126.910156 177.894531 L 147.632812 177.894531 L 147.632812 198.632812 L 126.910156 198.632812 L 126.910156 177.894531 " fill-opacity="1" fill-rule="nonzero"/><path fill="#88421f" d="M 85.460938 322.976562 L 85.449219 281.515625 L 106.179688 281.507812 L 106.1875 302.25 L 126.910156 302.238281 L 126.921875 322.976562 L 85.460938 322.976562 " fill-opacity="1" fill-rule="nonzero"/><path fill="#88421f" d="M 126.910156 302.25 L 126.910156 322.96875 L 85.460938 322.96875 L 85.460938 281.515625 L 106.179688 281.515625 L 106.179688 302.25 L 126.910156 302.25 " fill-opacity="1" fill-rule="nonzero"/><path fill="#88421f" d="M 354.855469 157.1875 L 354.84375 95.023438 L 375.578125 95.011719 L 375.585938 157.1875 L 354.855469 157.1875 " fill-opacity="1" fill-rule="nonzero"/><path fill="#88421f" d="M 375.578125 157.179688 L 354.855469 157.179688 L 354.855469 95.023438 L 375.578125 95.023438 L 375.578125 157.179688 " fill-opacity="1" fill-rule="nonzero"/><path fill="#88421f" d="M 209.796875 385.132812 L 209.789062 343.667969 L 189.082031 343.683594 L 189.066406 322.96875 L 251.25 322.957031 L 251.238281 302.25 L 292.6875 302.238281 L 292.695312 322.96875 L 313.40625 322.957031 L 313.390625 302.25 L 334.136719 302.238281 L 334.148438 343.667969 L 292.6875 343.683594 L 292.695312 385.132812 L 209.796875 385.132812 " fill-opacity="1" fill-rule="nonzero"/><path fill="#88421f" d="M 313.40625 302.25 L 334.136719 302.25 L 334.136719 343.667969 L 292.6875 343.667969 L 292.6875 385.121094 L 209.796875 385.121094 L 209.796875 343.667969 L 189.082031 343.667969 L 189.082031 322.96875 L 251.25 322.96875 L 251.25 302.25 L 292.6875 302.25 L 292.6875 322.96875 L 313.40625 322.96875 L 313.40625 302.25 " fill-opacity="1" fill-rule="nonzero"/><path fill="#88421f" d="M 230.535156 115.75 L 230.519531 95.023438 L 251.25 95.011719 L 251.261719 115.75 L 230.535156 115.75 " fill-opacity="1" fill-rule="nonzero"/><path fill="#88421f" d="M 251.25 115.742188 L 230.535156 115.742188 L 230.535156 95.023438 L 251.25 95.023438 L 251.25 115.742188 " fill-opacity="1" fill-rule="nonzero"/><path fill="#88421f" d="M 313.40625 177.910156 L 313.390625 157.179688 L 334.136719 157.164062 L 334.148438 177.910156 L 313.40625 177.910156 " fill-opacity="1" fill-rule="nonzero"/><path fill="#88421f" d="M 313.40625 157.179688 L 334.136719 157.179688 L 334.136719 177.894531 L 313.40625 177.894531 L 313.40625 157.179688 " fill-opacity="1" fill-rule="nonzero"/><path fill="#88421f" d="M 375.578125 260.8125 L 375.5625 240.066406 L 396.308594 240.054688 L 396.316406 260.8125 L 375.578125 260.8125 " fill-opacity="1" fill-rule="nonzero"/><path fill="#88421f" d="M 396.308594 240.066406 L 396.308594 260.796875 L 375.578125 260.796875 L 375.578125 240.066406 L 396.308594 240.066406 " fill-opacity="1" fill-rule="nonzero"/><g clip-path="url(#21b5b53af9)"><path fill="#221516" d="M 313.40625 426.585938 L 313.390625 405.855469 L 334.136719 405.84375 L 334.148438 426.585938 L 313.40625 426.585938 " fill-opacity="1" fill-rule="nonzero"/><path fill="#221516" d="M 313.40625 426.574219 L 313.40625 405.855469 L 334.136719 405.855469 L 334.136719 426.574219 L 313.40625 426.574219 " fill-opacity="1" fill-rule="nonzero"/></g></svg>