<svg xmlns="http://www.w3.org/2000/svg" xmlns:xlink="http://www.w3.org/1999/xlink" width="600" zoomAndPan="magnify" viewBox="0 0 450 449.999984" height="600" preserveAspectRatio="xMidYMid meet" version="1.0"><defs><clipPath id="29db7bd7b6"><path d="M 0 0 L 11.519531 0 L 11.519531 25.917969 L 0 25.917969 Z M 0 0 " clip-rule="nonzero"/></clipPath><clipPath id="7e0173a551"><path d="M -55.980469 -109.082031 C -93.257812 -109.082031 -123.480469 -78.863281 -123.480469 -41.582031 C -123.480469 -4.304688 -93.257812 25.917969 -55.980469 25.917969 C -18.699219 25.917969 11.519531 -4.304688 11.519531 -41.582031 C 11.519531 -78.863281 -18.699219 -109.082031 -55.980469 -109.082031 Z M -55.980469 -109.082031 " clip-rule="nonzero"/></clipPath><clipPath id="7a4a3d73eb"><path d="M 0 0 L 16.503906 0 L 16.503906 9 L 0 9 Z M 0 0 " clip-rule="nonzero"/></clipPath><clipPath id="f95cbf0c25"><path d="M 45 35.699219 L 405 35.699219 L 405 403 L 45 403 Z M 45 35.699219 " clip-rule="nonzero"/></clipPath><clipPath id="4a4bd415e1"><path d="M 92 380 L 165 380 L 165 404.699219 L 92 404.699219 Z M 92 380 " clip-rule="nonzero"/></clipPath><clipPath id="40e33ca5c9"><path d="M 260 356 L 357 356 L 357 404.699219 L 260 404.699219 Z M 260 356 " clip-rule="nonzero"/></clipPath></defs><g clip-path="url(#29db7bd7b6)"><g clip-path="url(#7e0173a551)"><path fill="#e1e1e1" d="M -123.480469 -109.082031 L 11.519531 -109.082031 L 11.519531 25.917969 L -123.480469 25.917969 Z M -123.480469 -109.082031 " fill-opacity="1" fill-rule="nonzero"/></g></g><path fill="#c700ff" d="M -2.902344 -0.488281 L 5.882812 -0.488281 L 5.882812 8.296875 L -2.902344 8.296875 Z M -2.902344 -0.488281 " fill-opacity="1" fill-rule="nonzero"/><g clip-path="url(#7a4a3d73eb)"><path fill="#000000" d="M 10.5625 -89.878906 L 16.363281 -89.878906 L 16.363281 -95.667969 L 10.5625 -95.667969 L 10.5625 -101.457031 L 4.765625 -101.457031 L 4.765625 -107.246094 L -1.035156 -107.246094 L -1.035156 -136.195312 L -30.027344 -136.195312 L -30.027344 -159.355469 L -41.625 -159.355469 L -41.625 -153.566406 L -47.425781 -153.566406 L -47.425781 -147.773438 L -53.222656 -147.773438 L -53.222656 -141.984375 L -59.023438 -141.984375 L -59.023438 -147.773438 L -64.824219 -147.773438 L -64.824219 -153.566406 L -70.621094 -153.566406 L -70.621094 -159.355469 L -82.214844 -159.355469 L -82.214844 -147.773438 L -88.011719 -147.773438 L -88.011719 -141.984375 L -93.8125 -141.984375 L -93.8125 -147.773438 L -99.609375 -147.773438 L -99.609375 -153.566406 L -117.007812 -153.566406 L -117.007812 -130.40625 L -146 -130.40625 L -146 -124.617188 L -140.203125 -124.617188 L -140.203125 -101.457031 L -146 -101.457031 L -146 -95.667969 L -151.800781 -95.667969 L -151.800781 -89.878906 L -157.597656 -89.878906 L -157.597656 -84.089844 L -163.398438 -84.089844 L -163.398438 -78.296875 L -146 -78.296875 L -146 -49.355469 L -122.804688 -49.355469 L -122.804688 -37.773438 L -128.605469 -37.773438 L -128.605469 -14.617188 L -134.402344 -14.617188 L -134.402344 8.542969 L -128.605469 8.542969 L -128.605469 2.753906 L -117.007812 2.753906 L -117.007812 -3.035156 L -111.207031 -3.035156 L -111.207031 -8.828125 L -105.410156 -8.828125 L -105.410156 -14.617188 L -99.609375 -14.617188 L -99.609375 -20.40625 L -93.8125 -20.40625 L -93.8125 -26.195312 L -82.214844 -26.195312 L -82.214844 -20.40625 L -76.414062 -20.40625 L -76.414062 -8.828125 L -70.621094 -8.828125 L -70.621094 -14.617188 L -64.824219 -14.617188 L -64.824219 -20.40625 L -59.023438 -20.40625 L -59.023438 -26.195312 L -41.625 -26.195312 L -41.625 -20.40625 L -35.828125 -20.40625 L -35.828125 -14.617188 L -24.230469 -14.617188 L -24.230469 -49.355469 L 10.5625 -49.355469 L 10.5625 -55.144531 L 4.765625 -55.144531 L 4.765625 -60.933594 L -1.035156 -60.933594 L -1.035156 -66.722656 L -6.832031 -66.722656 L -6.832031 -84.089844 L -1.035156 -84.089844 L -1.035156 -89.878906 Z M 10.5625 -89.878906 " fill-opacity="1" fill-rule="evenodd"/></g><g clip-path="url(#f95cbf0c25)"><path fill="#fdde5f" d="M 380.96875 179.855469 L 380.96875 155.882812 L 308.957031 155.882812 L 308.957031 131.835938 L 285 131.835938 L 285 107.867188 L 260.96875 107.867188 L 260.96875 59.847656 L 237.015625 59.847656 L 237.015625 35.800781 L 212.984375 35.800781 L 212.984375 59.847656 L 188.957031 59.847656 L 188.957031 107.867188 L 165 107.867188 L 165 131.835938 L 140.96875 131.835938 L 140.96875 155.882812 L 69.03125 155.882812 L 69.03125 179.855469 L 45 179.855469 L 45 227.945312 L 69.03125 227.945312 L 69.03125 251.917969 L 92.984375 251.917969 L 92.984375 380.554688 L 123.058594 402.753906 L 165 380.554688 L 188.957031 356.582031 L 218.957031 344.558594 L 260.96875 356.582031 L 285 380.554688 L 320.898438 399.582031 L 356.941406 380.554688 L 356.941406 251.917969 L 380.96875 251.917969 L 380.96875 227.945312 L 405 227.945312 L 405 179.855469 Z M 380.96875 179.855469 " fill-opacity="1" fill-rule="nonzero"/></g><path fill="#fd8726" d="M 237.015625 332.535156 L 188.957031 332.535156 L 188.957031 356.582031 L 165 356.582031 L 165 380.628906 L 189.03125 380.628906 L 189.03125 356.582031 L 260.96875 356.582031 L 260.96875 332.535156 Z M 237.015625 332.535156 " fill-opacity="1" fill-rule="nonzero"/><g clip-path="url(#4a4bd415e1)"><path fill="#fd8726" d="M 117.015625 380.554688 L 92.984375 380.554688 L 92.984375 404.597656 L 165 404.597656 L 165 380.554688 Z M 117.015625 380.554688 " fill-opacity="1" fill-rule="nonzero"/></g><g clip-path="url(#40e33ca5c9)"><path fill="#fd8726" d="M 332.984375 380.554688 L 285 380.554688 L 285 356.582031 L 260.96875 356.582031 L 260.96875 380.628906 L 285 380.628906 L 285 404.597656 L 356.941406 404.597656 L 356.941406 380.554688 Z M 332.984375 380.554688 " fill-opacity="1" fill-rule="nonzero"/></g><path fill="#ffffff" d="M 356.941406 179.855469 L 308.957031 179.855469 L 308.957031 155.882812 L 285 155.882812 L 285 131.835938 L 260.96875 131.835938 L 260.96875 107.867188 L 237.015625 107.867188 L 237.015625 131.835938 L 260.96875 131.835938 L 260.96875 155.882812 L 285 155.882812 L 285 179.855469 L 308.957031 179.855469 L 308.957031 203.898438 L 380.96875 203.898438 L 380.96875 179.855469 Z M 356.941406 179.855469 " fill-opacity="1" fill-rule="nonzero"/><path fill="#ffffff" d="M 188.957031 131.835938 L 165 131.835938 L 165 155.882812 L 189.03125 155.882812 L 189.03125 131.835938 L 212.984375 131.835938 L 212.984375 107.867188 L 188.957031 107.867188 Z M 188.957031 131.835938 " fill-opacity="1" fill-rule="nonzero"/><path fill="#ffffff" d="M 212.984375 59.847656 L 237.015625 59.847656 L 237.015625 83.894531 L 212.984375 83.894531 Z M 212.984375 59.847656 " fill-opacity="1" fill-rule="nonzero"/><path fill="#ffffff" d="M 140.96875 179.855469 L 69.03125 179.855469 L 69.03125 203.898438 L 140.96875 203.898438 L 140.96875 179.929688 L 165 179.929688 L 165 155.882812 L 140.96875 155.882812 Z M 140.96875 179.855469 " fill-opacity="1" fill-rule="nonzero"/><path fill="#4d3c3e" d="M 165 227.945312 L 165 251.917969 L 188.957031 251.917969 L 188.957031 203.898438 L 165 203.898438 Z M 165 227.945312 " fill-opacity="1" fill-rule="nonzero"/><path fill="#4d3c3e" d="M 260.96875 203.898438 L 260.96875 251.917969 L 285 251.917969 L 285 203.898438 Z M 260.96875 203.898438 " fill-opacity="1" fill-rule="nonzero"/></svg>