<svg xmlns="http://www.w3.org/2000/svg" xmlns:xlink="http://www.w3.org/1999/xlink" width="600" zoomAndPan="magnify" viewBox="0 0 450 449.999984" height="600" preserveAspectRatio="xMidYMid meet" version="1.0"><defs><clipPath id="65d14e5eae"><path d="M 0 0 L 11.519531 0 L 11.519531 25.917969 L 0 25.917969 Z M 0 0 " clip-rule="nonzero"/></clipPath><clipPath id="35ef9631ef"><path d="M -55.980469 -109.082031 C -93.257812 -109.082031 -123.480469 -78.863281 -123.480469 -41.582031 C -123.480469 -4.304688 -93.257812 25.917969 -55.980469 25.917969 C -18.699219 25.917969 11.519531 -4.304688 11.519531 -41.582031 C 11.519531 -78.863281 -18.699219 -109.082031 -55.980469 -109.082031 Z M -55.980469 -109.082031 " clip-rule="nonzero"/></clipPath><clipPath id="19dafd0231"><path d="M 0 0 L 16.503906 0 L 16.503906 9 L 0 9 Z M 0 0 " clip-rule="nonzero"/></clipPath><clipPath id="9cb12108ed"><path d="M 66.019531 45 L 384.339844 45 L 384.339844 423.75 L 66.019531 423.75 Z M 66.019531 45 " clip-rule="nonzero"/></clipPath><clipPath id="ecab5059b5"><path d="M 372 362 L 384.339844 362 L 384.339844 375 L 372 375 Z M 372 362 " clip-rule="nonzero"/></clipPath></defs><g clip-path="url(#65d14e5eae)"><g clip-path="url(#35ef9631ef)"><path fill="#e1e1e1" d="M -123.480469 -109.082031 L 11.519531 -109.082031 L 11.519531 25.917969 L -123.480469 25.917969 Z M -123.480469 -109.082031 " fill-opacity="1" fill-rule="nonzero"/></g></g><path fill="#c700ff" d="M -2.902344 -0.488281 L 5.882812 -0.488281 L 5.882812 8.296875 L -2.902344 8.296875 Z M -2.902344 -0.488281 " fill-opacity="1" fill-rule="nonzero"/><g clip-path="url(#19dafd0231)"><path fill="#000000" d="M 10.5625 -89.878906 L 16.363281 -89.878906 L 16.363281 -95.667969 L 10.5625 -95.667969 L 10.5625 -101.457031 L 4.765625 -101.457031 L 4.765625 -107.246094 L -1.035156 -107.246094 L -1.035156 -136.195312 L -30.027344 -136.195312 L -30.027344 -159.355469 L -41.625 -159.355469 L -41.625 -153.566406 L -47.425781 -153.566406 L -47.425781 -147.773438 L -53.222656 -147.773438 L -53.222656 -141.984375 L -59.023438 -141.984375 L -59.023438 -147.773438 L -64.824219 -147.773438 L -64.824219 -153.566406 L -70.621094 -153.566406 L -70.621094 -159.355469 L -82.214844 -159.355469 L -82.214844 -147.773438 L -88.011719 -147.773438 L -88.011719 -141.984375 L -93.8125 -141.984375 L -93.8125 -147.773438 L -99.609375 -147.773438 L -99.609375 -153.566406 L -117.007812 -153.566406 L -117.007812 -130.40625 L -146 -130.40625 L -146 -124.617188 L -140.203125 -124.617188 L -140.203125 -101.457031 L -146 -101.457031 L -146 -95.667969 L -151.800781 -95.667969 L -151.800781 -89.878906 L -157.597656 -89.878906 L -157.597656 -84.089844 L -163.398438 -84.089844 L -163.398438 -78.296875 L -146 -78.296875 L -146 -49.355469 L -122.804688 -49.355469 L -122.804688 -37.773438 L -128.605469 -37.773438 L -128.605469 -14.617188 L -134.402344 -14.617188 L -134.402344 8.542969 L -128.605469 8.542969 L -128.605469 2.753906 L -117.007812 2.753906 L -117.007812 -3.035156 L -111.207031 -3.035156 L -111.207031 -8.828125 L -105.410156 -8.828125 L -105.410156 -14.617188 L -99.609375 -14.617188 L -99.609375 -20.40625 L -93.8125 -20.40625 L -93.8125 -26.195312 L -82.214844 -26.195312 L -82.214844 -20.40625 L -76.414062 -20.40625 L -76.414062 -8.828125 L -70.621094 -8.828125 L -70.621094 -14.617188 L -64.824219 -14.617188 L -64.824219 -20.40625 L -59.023438 -20.40625 L -59.023438 -26.195312 L -41.625 -26.195312 L -41.625 -20.40625 L -35.828125 -20.40625 L -35.828125 -14.617188 L -24.230469 -14.617188 L -24.230469 -49.355469 L 10.5625 -49.355469 L 10.5625 -55.144531 L 4.765625 -55.144531 L 4.765625 -60.933594 L -1.035156 -60.933594 L -1.035156 -66.722656 L -6.832031 -66.722656 L -6.832031 -84.089844 L -1.035156 -84.089844 L -1.035156 -89.878906 Z M 10.5625 -89.878906 " fill-opacity="1" fill-rule="evenodd"/></g><g clip-path="url(#9cb12108ed)"><path fill="#48251f" d="M 127.242188 423.800781 L 127.226562 411.574219 L 115.003906 411.585938 L 114.988281 374.917969 L 102.75 374.933594 L 102.742188 362.695312 L 90.519531 362.707031 L 90.503906 338.269531 L 78.28125 338.277344 L 78.265625 326.039062 L 66.03125 326.054688 L 66.019531 264.949219 L 78.28125 264.9375 L 78.265625 240.507812 L 90.519531 240.492188 L 90.503906 228.292969 L 102.75 228.285156 L 102.742188 216.078125 L 115.003906 216.070312 L 114.988281 203.855469 L 139.488281 203.839844 L 139.480469 191.640625 L 212.9375 191.628906 L 212.921875 179.414062 L 188.449219 179.425781 L 188.433594 167.199219 L 176.210938 167.210938 L 176.199219 154.984375 L 163.964844 155 L 163.949219 142.761719 L 151.726562 142.769531 L 151.710938 118.320312 L 139.488281 118.332031 L 139.480469 69.453125 L 151.726562 69.4375 L 151.710938 57.238281 L 200.699219 57.230469 L 200.710938 69.453125 L 212.9375 69.4375 L 212.921875 57.238281 L 225.171875 57.230469 L 225.160156 45.015625 L 261.90625 45 L 261.921875 57.238281 L 274.144531 57.230469 L 274.152344 69.453125 L 286.382812 69.4375 L 286.390625 81.667969 L 298.628906 81.652344 L 298.644531 106.109375 L 310.867188 106.09375 L 310.882812 167.199219 L 335.351562 167.1875 L 335.367188 179.414062 L 347.589844 179.402344 L 347.605469 191.640625 L 359.839844 191.628906 L 359.855469 216.078125 L 372.078125 216.070312 L 372.089844 277.171875 L 359.839844 277.1875 L 359.855469 289.386719 L 347.589844 289.402344 L 347.605469 301.601562 L 359.839844 301.585938 L 359.855469 338.269531 L 384.328125 338.253906 L 384.339844 350.480469 L 372.078125 350.492188 L 372.089844 362.695312 L 359.839844 362.707031 L 359.855469 374.917969 L 347.589844 374.933594 L 347.578125 350.480469 L 323.117188 350.492188 L 323.128906 362.695312 L 310.867188 362.707031 L 310.882812 423.800781 L 127.242188 423.800781 " fill-opacity="1" fill-rule="nonzero"/><path fill="#48251f" d="M 372.078125 350.480469 L 372.078125 362.695312 L 359.839844 362.695312 L 359.839844 374.917969 L 347.589844 374.917969 L 347.589844 350.480469 L 323.117188 350.480469 L 323.117188 362.695312 L 310.867188 362.695312 L 310.867188 423.785156 L 127.242188 423.785156 L 127.242188 411.574219 L 115.003906 411.574219 L 115.003906 374.917969 L 102.75 374.917969 L 102.75 362.695312 L 90.519531 362.695312 L 90.519531 338.269531 L 78.28125 338.269531 L 78.28125 326.039062 L 66.03125 326.039062 L 66.03125 264.949219 L 78.28125 264.949219 L 78.28125 240.507812 L 90.519531 240.507812 L 90.519531 228.292969 L 102.75 228.292969 L 102.75 216.078125 L 115.003906 216.078125 L 115.003906 203.855469 L 139.488281 203.855469 L 139.488281 191.640625 L 212.9375 191.640625 L 212.9375 179.414062 L 188.449219 179.414062 L 188.449219 167.199219 L 176.210938 167.199219 L 176.210938 154.984375 L 163.964844 154.984375 L 163.964844 142.761719 L 151.726562 142.761719 L 151.726562 118.320312 L 139.488281 118.320312 L 139.488281 69.453125 L 151.726562 69.453125 L 151.726562 57.238281 L 200.699219 57.238281 L 200.699219 69.453125 L 212.9375 69.453125 L 212.9375 57.238281 L 225.171875 57.238281 L 225.171875 45.015625 L 261.90625 45.015625 L 261.90625 57.238281 L 274.144531 57.238281 L 274.144531 69.453125 L 286.382812 69.453125 L 286.382812 81.667969 L 298.628906 81.667969 L 298.628906 106.109375 L 310.867188 106.109375 L 310.867188 167.199219 L 335.351562 167.199219 L 335.351562 179.414062 L 347.589844 179.414062 L 347.589844 191.640625 L 359.839844 191.640625 L 359.839844 216.078125 L 372.078125 216.078125 L 372.078125 277.171875 L 359.839844 277.171875 L 359.839844 289.386719 L 347.589844 289.386719 L 347.589844 301.601562 L 359.839844 301.601562 L 359.839844 338.269531 L 384.328125 338.269531 L 384.328125 350.480469 L 372.078125 350.480469 " fill-opacity="1" fill-rule="nonzero"/></g><path fill="#ef531c" d="M 335.351562 338.277344 L 335.34375 326.039062 L 323.117188 326.054688 L 323.105469 301.601562 L 347.589844 301.585938 L 347.605469 338.277344 L 335.351562 338.277344 " fill-opacity="1" fill-rule="nonzero"/><path fill="#ef531c" d="M 347.589844 301.601562 L 347.589844 338.269531 L 335.351562 338.269531 L 335.351562 326.039062 L 323.117188 326.039062 L 323.117188 301.601562 L 347.589844 301.601562 " fill-opacity="1" fill-rule="nonzero"/><path fill="#f26249" d="M 335.351562 289.402344 L 335.34375 264.949219 L 359.839844 264.9375 L 359.855469 277.171875 L 347.589844 277.1875 L 347.605469 289.402344 L 335.351562 289.402344 " fill-opacity="1" fill-rule="nonzero"/><path fill="#f26249" d="M 359.839844 264.949219 L 359.839844 277.171875 L 347.589844 277.171875 L 347.589844 289.386719 L 335.351562 289.386719 L 335.351562 264.949219 L 359.839844 264.949219 " fill-opacity="1" fill-rule="nonzero"/><path fill="#a13420" d="M 274.144531 411.585938 L 274.132812 399.363281 L 298.628906 399.347656 L 298.644531 411.585938 L 274.144531 411.585938 " fill-opacity="1" fill-rule="nonzero"/><path fill="#a13420" d="M 298.628906 399.363281 L 298.628906 411.574219 L 274.144531 411.574219 L 274.144531 399.363281 L 298.628906 399.363281 " fill-opacity="1" fill-rule="nonzero"/><path fill="#a13420" d="M 127.242188 411.585938 L 127.226562 374.917969 L 115.003906 374.933594 L 114.988281 362.695312 L 102.75 362.707031 L 102.742188 338.269531 L 90.519531 338.277344 L 90.503906 326.039062 L 78.28125 326.054688 L 78.265625 264.949219 L 90.519531 264.9375 L 90.503906 240.507812 L 102.75 240.492188 L 102.742188 228.292969 L 115.003906 228.285156 L 114.988281 216.078125 L 139.488281 216.070312 L 139.480469 203.855469 L 163.964844 203.839844 L 163.972656 277.171875 L 176.210938 277.160156 L 176.226562 301.601562 L 188.449219 301.585938 L 188.460938 326.039062 L 212.9375 326.03125 L 212.949219 338.269531 L 249.660156 338.253906 L 249.667969 350.480469 L 261.90625 350.46875 L 261.921875 362.695312 L 237.421875 362.707031 L 237.4375 374.917969 L 225.171875 374.933594 L 225.183594 387.132812 L 212.9375 387.148438 L 212.949219 411.585938 L 127.242188 411.585938 " fill-opacity="1" fill-rule="nonzero"/><path fill="#a13420" d="M 249.660156 350.480469 L 261.90625 350.480469 L 261.90625 362.695312 L 237.421875 362.695312 L 237.421875 374.917969 L 225.171875 374.917969 L 225.171875 387.132812 L 212.9375 387.132812 L 212.9375 411.574219 L 127.242188 411.574219 L 127.242188 374.917969 L 115.003906 374.917969 L 115.003906 362.695312 L 102.75 362.695312 L 102.75 338.269531 L 90.519531 338.269531 L 90.519531 326.039062 L 78.28125 326.039062 L 78.28125 264.949219 L 90.519531 264.949219 L 90.519531 240.507812 L 102.75 240.507812 L 102.75 228.292969 L 115.003906 228.292969 L 115.003906 216.078125 L 139.488281 216.078125 L 139.488281 203.855469 L 163.964844 203.855469 L 163.964844 277.171875 L 176.210938 277.171875 L 176.210938 301.601562 L 188.449219 301.601562 L 188.449219 326.039062 L 212.9375 326.039062 L 212.9375 338.269531 L 249.660156 338.269531 L 249.660156 350.480469 " fill-opacity="1" fill-rule="nonzero"/><path fill="#a13420" d="M 274.144531 387.148438 L 274.132812 374.917969 L 298.628906 374.910156 L 298.644531 387.148438 L 274.144531 387.148438 " fill-opacity="1" fill-rule="nonzero"/><path fill="#a13420" d="M 298.628906 374.917969 L 298.628906 387.132812 L 274.144531 387.132812 L 274.144531 374.917969 L 298.628906 374.917969 " fill-opacity="1" fill-rule="nonzero"/><path fill="#a13420" d="M 212.9375 277.1875 L 212.921875 264.949219 L 200.699219 264.960938 L 200.6875 203.855469 L 212.9375 203.839844 L 212.921875 191.640625 L 225.171875 191.628906 L 225.160156 167.199219 L 188.449219 167.210938 L 188.433594 154.984375 L 176.210938 155 L 176.199219 142.761719 L 163.964844 142.769531 L 163.949219 118.320312 L 151.726562 118.332031 L 151.710938 69.453125 L 200.699219 69.4375 L 200.710938 81.667969 L 212.9375 81.652344 L 212.921875 69.453125 L 225.171875 69.4375 L 225.160156 57.238281 L 261.90625 57.230469 L 261.921875 69.453125 L 274.144531 69.4375 L 274.152344 81.667969 L 286.382812 81.652344 L 286.390625 106.109375 L 298.628906 106.09375 L 298.644531 154.984375 L 261.90625 155 L 261.898438 130.546875 L 286.382812 130.535156 L 286.367188 118.320312 L 274.144531 118.332031 L 274.132812 93.894531 L 261.90625 93.902344 L 261.898438 81.667969 L 237.421875 81.679688 L 237.4375 93.894531 L 225.171875 93.902344 L 225.183594 106.109375 L 237.421875 106.09375 L 237.4375 142.761719 L 249.660156 142.746094 L 249.667969 167.199219 L 310.867188 167.1875 L 310.882812 191.640625 L 323.117188 191.628906 L 323.128906 203.855469 L 335.351562 203.839844 L 335.367188 252.734375 L 323.117188 252.746094 L 323.128906 264.949219 L 310.867188 264.960938 L 310.882812 277.1875 L 212.9375 277.1875 " fill-opacity="1" fill-rule="nonzero"/><path fill="#a13420" d="M 335.351562 203.855469 L 335.351562 252.734375 L 323.117188 252.734375 L 323.117188 264.949219 L 310.867188 264.949219 L 310.867188 277.171875 L 212.9375 277.171875 L 212.9375 264.949219 L 200.699219 264.949219 L 200.699219 203.855469 L 212.9375 203.855469 L 212.9375 191.640625 L 225.171875 191.640625 L 225.171875 167.199219 L 188.449219 167.199219 L 188.449219 154.984375 L 176.210938 154.984375 L 176.210938 142.761719 L 163.964844 142.761719 L 163.964844 118.320312 L 151.726562 118.320312 L 151.726562 69.453125 L 200.699219 69.453125 L 200.699219 81.667969 L 212.9375 81.667969 L 212.9375 69.453125 L 225.171875 69.453125 L 225.171875 57.238281 L 261.90625 57.238281 L 261.90625 69.453125 L 274.144531 69.453125 L 274.144531 81.667969 L 286.382812 81.667969 L 286.382812 106.109375 L 298.628906 106.109375 L 298.628906 154.984375 L 261.90625 154.984375 L 261.90625 130.546875 L 286.382812 130.546875 L 286.382812 118.320312 L 274.144531 118.320312 L 274.144531 93.894531 L 261.90625 93.894531 L 261.90625 81.667969 L 237.421875 81.667969 L 237.421875 93.894531 L 225.171875 93.894531 L 225.171875 106.109375 L 237.421875 106.109375 L 237.421875 142.761719 L 249.660156 142.761719 L 249.660156 167.199219 L 310.867188 167.199219 L 310.867188 191.640625 L 323.117188 191.640625 L 323.117188 203.855469 L 335.351562 203.855469 " fill-opacity="1" fill-rule="nonzero"/><path fill="#f26249" d="M 261.90625 130.5625 L 261.898438 118.320312 L 249.660156 118.332031 L 249.648438 106.109375 L 237.421875 106.117188 L 237.410156 81.667969 L 261.90625 81.652344 L 261.921875 93.894531 L 274.144531 93.882812 L 274.152344 118.320312 L 286.382812 118.308594 L 286.390625 130.5625 L 261.90625 130.5625 " fill-opacity="1" fill-rule="nonzero"/><path fill="#f26249" d="M 274.144531 118.320312 L 286.382812 118.320312 L 286.382812 130.546875 L 261.90625 130.546875 L 261.90625 118.320312 L 249.660156 118.320312 L 249.660156 106.109375 L 237.421875 106.109375 L 237.421875 81.667969 L 261.90625 81.667969 L 261.90625 93.894531 L 274.144531 93.894531 L 274.144531 118.320312 " fill-opacity="1" fill-rule="nonzero"/><path fill="#f26249" d="M 200.699219 142.769531 L 200.6875 130.546875 L 188.449219 130.5625 L 188.433594 118.320312 L 176.210938 118.332031 L 176.199219 93.894531 L 200.699219 93.882812 L 200.710938 106.109375 L 212.9375 106.09375 L 212.949219 118.320312 L 225.171875 118.308594 L 225.183594 142.769531 L 200.699219 142.769531 " fill-opacity="1" fill-rule="nonzero"/><path fill="#f26249" d="M 212.9375 118.320312 L 225.171875 118.320312 L 225.171875 142.761719 L 200.699219 142.761719 L 200.699219 130.546875 L 188.449219 130.546875 L 188.449219 118.320312 L 176.210938 118.320312 L 176.210938 93.894531 L 200.699219 93.894531 L 200.699219 106.109375 L 212.9375 106.109375 L 212.9375 118.320312 " fill-opacity="1" fill-rule="nonzero"/><path fill="#a13420" d="M 249.660156 130.5625 L 249.648438 118.320312 L 261.90625 118.308594 L 261.921875 130.5625 L 249.660156 130.5625 " fill-opacity="1" fill-rule="nonzero"/><path fill="#a13420" d="M 261.90625 118.320312 L 261.90625 130.546875 L 249.660156 130.546875 L 249.660156 118.320312 L 261.90625 118.320312 " fill-opacity="1" fill-rule="nonzero"/><g clip-path="url(#ecab5059b5)"><path fill="#48251f" d="M 372.078125 374.933594 L 372.066406 362.695312 L 384.328125 362.683594 L 384.339844 374.933594 L 372.078125 374.933594 " fill-opacity="1" fill-rule="nonzero"/><path fill="#48251f" d="M 372.078125 374.917969 L 372.078125 362.695312 L 384.328125 362.695312 L 384.328125 374.917969 L 372.078125 374.917969 " fill-opacity="1" fill-rule="nonzero"/></g><path fill="#ebb675" d="M 261.90625 252.746094 L 261.898438 216.078125 L 298.628906 216.070312 L 298.644531 228.292969 L 274.144531 228.308594 L 274.152344 252.746094 L 261.90625 252.746094 " fill-opacity="1" fill-rule="nonzero"/><path fill="#ebb675" d="M 298.628906 216.078125 L 298.628906 228.292969 L 274.144531 228.292969 L 274.144531 252.734375 L 261.90625 252.734375 L 261.90625 216.078125 L 298.628906 216.078125 " fill-opacity="1" fill-rule="nonzero"/><path fill="#ebb675" d="M 212.9375 411.585938 L 212.921875 387.132812 L 237.421875 387.125 L 237.4375 399.363281 L 274.144531 399.347656 L 274.152344 411.585938 L 212.9375 411.585938 " fill-opacity="1" fill-rule="nonzero"/><path fill="#ebb675" d="M 237.421875 387.132812 L 237.421875 399.363281 L 274.144531 399.363281 L 274.144531 411.574219 L 212.9375 411.574219 L 212.9375 387.132812 L 237.421875 387.132812 " fill-opacity="1" fill-rule="nonzero"/><path fill="#ebb675" d="M 274.144531 264.960938 L 274.132812 252.734375 L 298.628906 252.722656 L 298.644531 264.960938 L 274.144531 264.960938 " fill-opacity="1" fill-rule="nonzero"/><path fill="#ebb675" d="M 274.144531 264.949219 L 274.144531 252.734375 L 298.628906 252.734375 L 298.628906 264.949219 L 274.144531 264.949219 " fill-opacity="1" fill-rule="nonzero"/><path fill="#ebb675" d="M 298.628906 252.746094 L 298.621094 228.292969 L 310.867188 228.285156 L 310.882812 252.746094 L 298.628906 252.746094 " fill-opacity="1" fill-rule="nonzero"/><path fill="#ebb675" d="M 310.867188 252.734375 L 298.628906 252.734375 L 298.628906 228.292969 L 310.867188 228.292969 L 310.867188 252.734375 " fill-opacity="1" fill-rule="nonzero"/><path fill="#ebb675" d="M 249.660156 301.609375 L 249.648438 289.386719 L 225.171875 289.402344 L 225.160156 277.171875 L 310.867188 277.160156 L 310.851562 264.949219 L 323.117188 264.9375 L 323.105469 252.734375 L 335.351562 252.722656 L 335.34375 203.855469 L 323.117188 203.863281 L 323.105469 191.640625 L 310.867188 191.652344 L 310.851562 179.414062 L 335.351562 179.402344 L 335.367188 191.640625 L 347.589844 191.628906 L 347.605469 228.292969 L 359.839844 228.285156 L 359.855469 264.949219 L 335.351562 264.960938 L 335.367188 289.386719 L 323.117188 289.402344 L 323.128906 301.609375 L 249.660156 301.609375 " fill-opacity="1" fill-rule="nonzero"/><path fill="#ebb675" d="M 359.839844 228.292969 L 359.839844 264.949219 L 335.351562 264.949219 L 335.351562 289.386719 L 323.117188 289.386719 L 323.117188 301.601562 L 249.660156 301.601562 L 249.660156 289.386719 L 225.171875 289.386719 L 225.171875 277.171875 L 310.867188 277.171875 L 310.867188 264.949219 L 323.117188 264.949219 L 323.117188 252.734375 L 335.351562 252.734375 L 335.351562 203.855469 L 323.117188 203.855469 L 323.117188 191.640625 L 310.867188 191.640625 L 310.867188 179.414062 L 335.351562 179.414062 L 335.351562 191.640625 L 347.589844 191.640625 L 347.589844 228.292969 L 359.839844 228.292969 " fill-opacity="1" fill-rule="nonzero"/><path fill="#ebb675" d="M 274.152344 338.269531 L 298.628906 338.253906 L 298.621094 326.039062 L 274.152344 326.054688 Z M 261.90625 362.707031 L 261.898438 350.480469 L 249.660156 350.492188 L 249.648438 338.269531 L 212.9375 338.277344 L 212.921875 326.039062 L 188.449219 326.054688 L 188.433594 301.601562 L 176.210938 301.609375 L 176.199219 277.171875 L 163.964844 277.1875 L 163.949219 203.855469 L 188.449219 203.839844 L 188.460938 264.949219 L 200.699219 264.9375 L 200.710938 277.171875 L 212.9375 277.160156 L 212.949219 289.386719 L 225.171875 289.375 L 225.183594 301.601562 L 249.660156 301.585938 L 249.667969 313.824219 L 298.628906 313.816406 L 298.644531 326.039062 L 323.117188 326.03125 L 323.128906 350.480469 L 286.382812 350.492188 L 286.390625 362.707031 L 261.90625 362.707031 " fill-opacity="1" fill-rule="nonzero"/><path fill="#ebb675" d="M 225.171875 301.601562 L 249.660156 301.601562 L 249.660156 313.824219 L 298.628906 313.824219 L 298.628906 326.039062 L 274.144531 326.039062 L 274.144531 338.269531 L 298.628906 338.269531 L 298.628906 326.039062 L 323.117188 326.039062 L 323.117188 350.480469 L 286.382812 350.480469 L 286.382812 362.695312 L 261.90625 362.695312 L 261.90625 350.480469 L 249.660156 350.480469 L 249.660156 338.269531 L 212.9375 338.269531 L 212.9375 326.039062 L 188.449219 326.039062 L 188.449219 301.601562 L 176.210938 301.601562 L 176.210938 277.171875 L 163.964844 277.171875 L 163.964844 203.855469 L 188.449219 203.855469 L 188.449219 264.949219 L 200.699219 264.949219 L 200.699219 277.171875 L 212.9375 277.171875 L 212.9375 289.386719 L 225.171875 289.386719 L 225.171875 301.601562 " fill-opacity="1" fill-rule="nonzero"/><path fill="#ebb675" d="M 237.421875 387.148438 L 237.410156 362.695312 L 249.660156 362.683594 L 249.667969 374.917969 L 274.144531 374.910156 L 274.152344 387.148438 L 237.421875 387.148438 " fill-opacity="1" fill-rule="nonzero"/><path fill="#ebb675" d="M 249.660156 374.917969 L 274.144531 374.917969 L 274.144531 387.132812 L 237.421875 387.132812 L 237.421875 362.695312 L 249.660156 362.695312 L 249.660156 374.917969 " fill-opacity="1" fill-rule="nonzero"/><path fill="#48251f" d="M 274.144531 252.746094 L 274.132812 228.292969 L 298.628906 228.285156 L 298.644531 252.746094 L 274.144531 252.746094 " fill-opacity="1" fill-rule="nonzero"/><path fill="#48251f" d="M 274.144531 228.292969 L 298.628906 228.292969 L 298.628906 252.734375 L 274.144531 252.734375 L 274.144531 228.292969 " fill-opacity="1" fill-rule="nonzero"/><path fill="#48251f" d="M 212.9375 93.902344 L 212.921875 81.667969 L 225.171875 81.652344 L 225.183594 93.902344 L 212.9375 93.902344 " fill-opacity="1" fill-rule="nonzero"/><path fill="#48251f" d="M 225.171875 93.894531 L 212.9375 93.894531 L 212.9375 81.667969 L 225.171875 81.667969 L 225.171875 93.894531 " fill-opacity="1" fill-rule="nonzero"/><path fill="#48251f" d="M 127.242188 399.367188 L 127.226562 387.132812 L 156.371094 387.125 L 156.386719 399.367188 L 127.242188 399.367188 " fill-opacity="1" fill-rule="nonzero"/><path fill="#48251f" d="M 156.371094 399.351562 L 127.242188 399.351562 L 127.242188 387.132812 L 156.371094 387.132812 L 156.371094 399.351562 " fill-opacity="1" fill-rule="nonzero"/></svg>