<svg width="218" height="24" viewBox="0 0 218 24" fill="none" xmlns="http://www.w3.org/2000/svg">
<g filter="url(#filter0_d_1_5)">
<path d="M0.5 17.5V0H15.5V2.5H18V7.5H15.5V10H18V15H15.5V17.5H0.5ZM5.5 7.5H13V2.5H5.5V7.5ZM5.5 15H13V10H5.5V15ZM23 17.5V15H28V2.5H25.5V0H33V15H38V17.5H23ZM48 2.5V0H53V2.5H48ZM43 17.5V15H48V7.5H45.5V5H53V15H58V17.5H43ZM60.5 17.5V15H73V12.5H63V10H60.5V7.5H63V5H75.5V7.5H65.5V10H75.5V12.5H78V15H75.5V17.5H60.5ZM80.5 17.5V15H93V12.5H83V10H80.5V7.5H83V5H95.5V7.5H85.5V10H95.5V12.5H98V15H95.5V17.5H80.5ZM108 17.5V15H105.5V12.5H103V10H100.5V0H105.5V7.5H108V10H110.5V7.5H113V0H118V10H115.5V12.5H113V15H110.5V17.5H108ZM123 17.5V15H120.5V12.5H123V10H133V7.5H123V5H135.5V7.5H138V17.5H123ZM125.5 15H133V12.5H125.5V15ZM143 17.5V15H148V2.5H145.5V0H153V15H158V17.5H143ZM163 17.5V15H168V2.5H165.5V0H173V15H178V17.5H163ZM183 17.5V15H180.5V7.5H183V5H195.5V7.5H198V12.5H185.5V15H195.5V17.5H183ZM185.5 10H193V7.5H185.5V10ZM203 20V17.5H213V15H203V12.5H200.5V5H205.5V12.5H213V5H218V17.5H215.5V20H203Z" fill="white"/>
</g>
<defs>
<filter id="filter0_d_1_5" x="0.5" y="0" width="217.5" height="24" filterUnits="userSpaceOnUse" color-interpolation-filters="sRGB">
<feFlood flood-opacity="0" result="BackgroundImageFix"/>
<feColorMatrix in="SourceAlpha" type="matrix" values="0 0 0 0 0 0 0 0 0 0 0 0 0 0 0 0 0 0 127 0" result="hardAlpha"/>
<feOffset dy="4"/>
<feComposite in2="hardAlpha" operator="out"/>
<feColorMatrix type="matrix" values="0 0 0 0 0.4025 0 0 0 0 0 0 0 0 0 0.805 0 0 0 1 0"/>
<feBlend mode="normal" in2="BackgroundImageFix" result="effect1_dropShadow_1_5"/>
<feBlend mode="normal" in="SourceGraphic" in2="effect1_dropShadow_1_5" result="shape"/>
</filter>
</defs>
</svg>
